<svg width="570" height="384" viewBox="0 0 570 384" fill="none" xmlns="http://www.w3.org/2000/svg">
<g clip-path="url(#clip0_1_199)">
<path d="M217 320H386C390.4 320 394 323.6 394 328V372C394 376.4 390.4 380 386 380H217C212.6 380 209 376.4 209 372V328C209 323.6 212.6 320 217 320Z" fill="#240C39"/>
<path d="M304.7 351.4C302.2 351.4 300.1 353.5 300.1 356C300.1 358.5 302.2 360.6 304.7 360.6C307.2 360.6 309.3 358.6 309.3 356C309.3 354.8 308.8 353.6 308 352.7C307.1 351.8 305.9 351.4 304.7 351.4ZM304.7 358.7C303.6 358.8 302.5 358.2 302 357.1C301.5 356.1 301.7 354.8 302.5 354C303.3 353.2 304.5 352.9 305.6 353.3C306.7 353.7 307.4 354.7 307.4 355.9C307.4 356.6 307.2 357.3 306.7 357.8C306.1 358.4 305.4 358.7 304.7 358.7ZM294.6 351.4C292.1 351.4 290 353.5 290 356C290 358.5 292.1 360.6 294.6 360.6C297.1 360.6 299.2 358.6 299.2 356C299.2 354.8 298.7 353.6 297.9 352.7C297 351.8 295.8 351.4 294.6 351.4ZM294.6 358.7C293.5 358.8 292.4 358.2 291.9 357.1C291.4 356.1 291.6 354.8 292.4 354C293.2 353.2 294.4 352.9 295.5 353.3C296.6 353.7 297.3 354.7 297.3 355.9C297.3 356.6 297.1 357.3 296.6 357.8C296 358.4 295.3 358.7 294.6 358.7ZM282.6 352.8V354.7H287.3C287.2 355.6 286.8 356.5 286.2 357.1C285.3 358.1 283.9 358.6 282.6 358.5C279.7 358.5 277.4 356.2 277.4 353.3C277.4 350.4 279.7 348.1 282.6 348.1C283.9 348.1 285.2 348.6 286.1 349.5L287.5 348.1C286.2 346.8 284.4 346.1 282.6 346.1C280 346 277.5 347.3 276.2 349.6C274.9 351.8 274.9 354.6 276.2 356.9C277.5 359.1 280 360.5 282.6 360.4C284.5 360.5 286.3 359.8 287.6 358.4C288.7 357.2 289.3 355.5 289.3 353.9C289.3 353.5 289.3 353.1 289.2 352.7L282.6 352.8ZM331.6 354.3C331 352.6 329.5 351.4 327.7 351.4C326.5 351.4 325.4 351.9 324.5 352.8C323.7 353.7 323.3 354.8 323.3 356C323.3 357.2 323.7 358.4 324.6 359.2C325.5 360.1 326.6 360.5 327.9 360.5C329.4 360.5 330.9 359.8 331.7 358.5L330.1 357.4C329.6 358.2 328.8 358.7 327.8 358.7C326.8 358.7 326 358.2 325.6 357.3L331.8 354.8L331.6 354.3ZM325.4 355.8C325.4 355.1 325.6 354.5 326 354C326.5 353.5 327.1 353.2 327.8 353.2C328.5 353.2 329.2 353.5 329.5 354.2L325.4 355.8ZM320.4 360.2H322.4V346.8H320.4V360.2ZM317.1 352.4C316.4 351.7 315.5 351.3 314.6 351.3C312.1 351.4 310.2 353.4 310.2 355.9C310.2 358.4 312.1 360.4 314.6 360.5C315.5 360.5 316.4 360.1 317 359.4H317.1V360.1C317.1 361.9 316.2 362.8 314.6 362.8C313.6 362.8 312.7 362.1 312.3 361.2L310.5 361.9C311.2 363.5 312.8 364.6 314.6 364.6C317 364.6 318.9 363.2 318.9 359.8V351.7H317L317.1 352.4ZM314.7 358.7C313.3 358.6 312.1 357.4 312.1 355.9C312.1 354.5 313.2 353.2 314.7 353.1C315.4 353.1 316.1 353.4 316.5 354C317 354.5 317.2 355.2 317.1 355.9C317.2 356.6 316.9 357.3 316.5 357.8C316.1 358.4 315.4 358.7 314.7 358.7ZM341.1 346.8H336.3V360.2H338.3V355.1H341.1C342.7 355.2 344.2 354.4 345 353.1C345.8 351.8 345.8 350.1 345 348.7C344.2 347.5 342.7 346.7 341.1 346.8ZM341.1 353.3H338.3V348.7H341.2C342.5 348.7 343.5 349.7 343.5 351C343.5 352.3 342.4 353.3 341.1 353.3ZM353.6 351.3C352.1 351.2 350.7 352 350 353.4L351.8 354.1C352.2 353.4 352.9 353 353.6 353.1C354.1 353 354.6 353.2 355 353.5C355.4 353.8 355.7 354.3 355.7 354.8V355C355 354.7 354.3 354.5 353.6 354.5C351.7 354.5 349.7 355.6 349.7 357.5C349.7 358.3 350.1 359.1 350.7 359.7C351.3 360.3 352.2 360.5 353 360.5C354 360.6 355 360.1 355.6 359.2H355.7V360.3H357.6V355.1C357.7 352.7 355.9 351.4 353.6 351.3ZM353.3 358.7C352.6 358.7 351.7 358.4 351.7 357.6C351.7 356.5 352.8 356.2 353.9 356.2C354.5 356.2 355.2 356.3 355.7 356.7C355.6 357.8 354.6 358.7 353.3 358.7ZM364.8 351.6L362.5 357.4H362.4L360 351.6H357.8L361.4 359.7L359.3 364.2H361.4L366.9 351.5H364.8V351.6ZM346.6 360.2H348.6V346.8H346.6V360.2Z" fill="white"/>
<path d="M282.3 339C282.3 339.8 282 340.6 281.5 341.1C280.9 341.7 280 342.1 279.1 342.1C277.7 342.1 276.5 341.3 276 340C275.5 338.7 275.8 337.3 276.7 336.3C277.3 335.7 278.2 335.3 279.1 335.3C279.6 335.3 280 335.4 280.4 335.6C280.8 335.8 281.1 336 281.4 336.3L280.8 336.9C280.4 336.4 279.7 336.1 279 336.1C278.3 336.1 277.7 336.4 277.2 336.9C276.7 337.4 276.5 338 276.5 338.7C276.5 339.7 277.1 340.7 278 341.1C278.9 341.5 280 341.3 280.8 340.6C281.1 340.2 281.3 339.8 281.3 339.3H279V338.5H282.1C282.3 338.7 282.3 338.8 282.3 339ZM287.2 336.3H284.3V338.3H287V339.1H284.3V341.1H287.2V342H283.4V335.6H287.2V336.3ZM290.8 342H290V336.3H288.2V335.5H292.7V336.3H290.8V342ZM295.8 342V335.6H296.6V342H295.8ZM300.4 342H299.6V336.3H297.8V335.5H302.3V336.3H300.5V342H300.4ZM310.6 341.1C309.3 342.4 307.2 342.4 305.8 341.1C304.5 339.8 304.5 337.7 305.8 336.3C307.1 335 309.2 335 310.6 336.3C311.9 337.7 311.9 339.8 310.6 341.1ZM306.5 340.6C307.5 341.6 309.1 341.6 310 340.6C311 339.6 311 337.9 310 336.9C309 335.9 307.5 335.9 306.5 336.9C305.5 337.9 305.5 339.6 306.5 340.6ZM312.7 342V335.6H313.7L316.9 340.6V335.6H317.7V342H316.8L313.5 336.7V342H312.7Z" fill="white" stroke="white" stroke-width="0.5"/>
<path d="M242.3 336.1C241.9 336.5 241.8 337.1 241.8 337.6V361.4C241.8 361.9 241.9 362.5 242.3 362.9L242.4 363L255.8 349.7V349.4L242.3 336.1Z" fill="url(#paint0_linear_1_199)"/>
<path d="M260.2 354.1L255.8 349.7V349.4L260.2 344.9L260.3 345L265.6 348C267.1 348.9 267.1 350.2 265.6 351.1L260.3 354.1H260.2Z" fill="url(#paint1_linear_1_199)"/>
<path d="M260.3 354L255.7 349.5L242.3 362.9C242.9 363.5 243.9 363.5 244.5 363L260.3 354Z" fill="url(#paint2_linear_1_199)"/>
<path d="M260.3 345L244.5 336C243.8 335.5 242.9 335.5 242.3 336.1L255.8 349.5L260.3 345Z" fill="url(#paint3_linear_1_199)"/>
<path opacity="0.2" d="M260.2 353.9L244.5 362.8C243.9 363.3 243 363.3 242.3 362.8L242.2 362.9L242.3 363C242.9 363.5 243.8 363.5 244.5 363L260.3 354L260.2 353.9Z" fill="black"/>
<path opacity="0.12" d="M242.3 362.7C241.9 362.3 241.8 361.7 241.8 361.2V361.4C241.8 361.9 241.9 362.5 242.3 362.9V362.7ZM265.6 350.9L260.2 353.9L260.3 354L265.6 351C266.2 350.7 266.6 350.1 266.7 349.5C266.6 350.1 266.2 350.6 265.6 350.9Z" fill="black"/>
<path opacity="0.25" d="M244.5 336.2L265.6 348.1C266.2 348.4 266.6 348.9 266.7 349.5C266.6 348.8 266.2 348.2 265.6 348L244.5 336C243 335.1 241.8 335.9 241.8 337.6V337.8C241.8 336.1 243 335.3 244.5 336.2Z" fill="white"/>
</g>
<g clip-path="url(#clip1_1_199)">
<path d="M8 320H177C181.4 320 185 323.6 185 328V372C185 376.4 181.4 380 177 380H8C3.6 380 0 376.4 0 372V328C0 323.6 3.6 320 8 320Z" fill="#240C39"/>
<path d="M71.4 357.3H65.7L64.3 361.4H62L67.4 346.3H69.9L75.3 361.4H72.9L71.4 357.3ZM66.4 355.4H70.9L68.7 348.8H68.6L66.4 355.4ZM86.9 355.9C86.9 359.3 85.1 361.5 82.4 361.5C81 361.6 79.7 360.8 79 359.6H78.9V365H76.7V350.3H78.9V352.1C79.6 350.9 80.9 350.1 82.4 350.2C85 350.2 86.9 352.4 86.9 355.9ZM84.6 355.9C84.6 353.7 83.5 352.2 81.7 352.2C80 352.2 78.9 353.7 78.9 355.9C78.9 358.1 80 359.6 81.7 359.6C83.4 359.6 84.6 358.1 84.6 355.9ZM98.8 355.9C98.8 359.3 97 361.5 94.3 361.5C92.9 361.6 91.6 360.8 90.9 359.6H90.8V365H88.6V350.3H90.8V352.1C91.5 350.9 92.8 350.1 94.3 350.2C97 350.2 98.8 352.4 98.8 355.9ZM96.5 355.9C96.5 353.7 95.4 352.2 93.6 352.2C91.9 352.2 90.8 353.7 90.8 355.9C90.8 358.1 91.9 359.6 93.6 359.6C95.4 359.6 96.5 358.1 96.5 355.9ZM106.7 357.1C106.9 358.6 108.3 359.6 110.3 359.6C112.2 359.6 113.5 358.6 113.5 357.3C113.5 356.1 112.7 355.4 110.8 354.9L108.9 354.4C106.2 353.7 104.9 352.4 104.9 350.3C104.9 347.7 107.1 345.9 110.3 345.9C113.4 345.9 115.6 347.7 115.7 350.3H113.5C113.4 348.8 112.1 347.9 110.3 347.9C108.5 347.9 107.3 348.8 107.3 350.2C107.3 351.3 108.1 351.9 110 352.4L111.6 352.8C114.7 353.5 115.9 354.8 115.9 357C115.9 359.8 113.7 361.6 110.2 361.6C106.9 361.6 104.7 359.9 104.5 357.1H106.7ZM120.7 347.7V350.3H122.8V352.1H120.7V358.2C120.7 359.1 121.1 359.6 122 359.6C122.2 359.6 122.5 359.6 122.7 359.5V361.3C122.3 361.4 121.9 361.4 121.5 361.4C119.3 361.4 118.4 360.6 118.4 358.4V352.1H116.8V350.3H118.4V347.7H120.7ZM123.9 355.9C123.9 352.4 125.9 350.3 129 350.3C132.1 350.3 134.1 352.5 134.1 355.9C134.1 359.4 132.1 361.5 129 361.5C125.9 361.5 123.9 359.3 123.9 355.9ZM131.9 355.9C131.9 353.5 130.8 352.1 129 352.1C127.2 352.1 126.1 353.5 126.1 355.9C126.1 358.3 127.2 359.7 129 359.7C130.9 359.6 131.9 358.2 131.9 355.9ZM136.1 350.3H138.2V352.2H138.3C138.6 351 139.7 350.2 140.9 350.2C141.2 350.2 141.4 350.2 141.7 350.3V352.4C141.4 352.3 141 352.3 140.7 352.3C140 352.3 139.4 352.5 139 353C138.6 353.5 138.3 354.1 138.4 354.8V361.3H136.2L136.1 350.3ZM151.9 358.1C151.6 360.1 149.7 361.5 147.2 361.5C144 361.5 142.1 359.4 142.1 355.9C142.1 352.4 144.1 350.2 147.1 350.2C150.1 350.2 152 352.3 152 355.6V356.4H144.3V356.5C144.2 357.3 144.5 358.1 145.1 358.7C145.7 359.3 146.4 359.6 147.3 359.6C148.4 359.7 149.4 359.1 149.8 358.1H151.9ZM144.3 354.8H149.7C149.7 354.1 149.5 353.3 149 352.8C148.5 352.3 147.8 352 147.1 352C146.4 352 145.7 352.3 145.1 352.8C144.6 353.4 144.3 354.1 144.3 354.8ZM65.6 336.4C66.6 336.3 67.5 336.7 68.1 337.4C68.8 338.1 69.1 339.1 68.9 340.1C68.9 342.5 67.7 343.9 65.5 343.9H63V336.4H65.6ZM64.1 342.8H65.4C66.1 342.8 66.7 342.6 67.2 342C67.7 341.5 67.9 340.8 67.8 340.1C67.9 339.4 67.7 338.7 67.2 338.2C66.8 337.7 66.1 337.4 65.4 337.4H64.1V342.8ZM70.2 341C70.1 340 70.6 339 71.4 338.5C72.2 338 73.3 338 74.1 338.5C74.9 339 75.4 340 75.3 341C75.4 342 74.9 343 74.1 343.5C73.3 344 72.2 344 71.4 343.5C70.6 343 70.1 342.1 70.2 341ZM74.2 341C74.2 339.8 73.7 339.1 72.8 339.1C71.9 339.1 71.4 339.8 71.4 341C71.4 342.2 71.9 343 72.8 343C73.7 343 74.2 342.3 74.2 341ZM82.1 343.9H81L79.9 339.7H79.8L78.7 343.9H77.6L76.1 338.2H77.2L78.2 342.5H78.3L79.4 338.2H80.4L81.5 342.5H81.6L82.6 338.2H83.7C83.6 338.2 82.1 343.9 82.1 343.9ZM84.8 338.2H85.8V339.1H85.9C86.2 338.4 86.8 338 87.5 338.1C88 338.1 88.6 338.3 88.9 338.7C89.3 339.1 89.4 339.7 89.4 340.2V343.9H88.3V340.5C88.3 339.6 87.9 339.1 87.1 339.1C86.7 339.1 86.4 339.2 86.1 339.5C85.8 339.8 85.7 340.2 85.8 340.5V343.8H84.7C84.8 343.9 84.8 338.2 84.8 338.2ZM91.1 336H92.2V343.9H91.1V336ZM93.7 341C93.6 340 94.1 339 94.9 338.5C95.7 338 96.8 338 97.6 338.5C98.4 339 98.9 340 98.8 341C98.9 342 98.4 343 97.6 343.5C96.8 344 95.7 344 94.9 343.5C94 343 93.6 342.1 93.7 341ZM97.7 341C97.7 339.8 97.2 339.1 96.3 339.1C95.4 339.1 94.9 339.8 94.9 341C94.9 342.2 95.4 343 96.3 343C97.1 343 97.7 342.3 97.7 341ZM99.9 342.3C99.9 341.3 100.6 340.7 101.9 340.6L103.4 340.5V340C103.4 339.4 103 339.1 102.3 339.1C101.7 339.1 101.3 339.3 101.2 339.7H100.2C100.3 338.7 101.2 338.1 102.4 338.1C103.8 338.1 104.5 338.8 104.5 340V343.9H103.5V343.1H103.4C103.1 343.7 102.4 344 101.8 344C101.3 344 100.9 343.9 100.5 343.6C100.1 343.2 99.9 342.8 99.9 342.3ZM103.4 341.8V341.3L102.1 341.4C101.4 341.5 101 341.7 101 342.2C101 342.7 101.4 343 102 343C102.3 343 102.7 342.9 102.9 342.7C103.2 342.5 103.3 342.2 103.4 341.8ZM105.8 341C105.8 339.2 106.7 338.1 108 338.1C108.7 338.1 109.3 338.5 109.7 339.1H109.8V336H110.9V343.9H109.9V343H109.8C109.5 343.6 108.8 344 108.1 344C106.7 344 105.8 342.8 105.8 341ZM106.9 341C106.9 342.2 107.4 342.9 108.3 342.9C109.2 342.9 109.8 342.2 109.8 341C109.8 339.8 109.2 339.1 108.3 339.1C107.5 339.1 106.9 339.8 106.9 341ZM115.3 341C115.2 340 115.7 339 116.5 338.5C117.3 338 118.4 338 119.2 338.5C120 339 120.5 340 120.4 341C120.5 342 120 343 119.2 343.5C118.4 344 117.3 344 116.5 343.5C115.7 343 115.2 342.1 115.3 341ZM119.3 341C119.3 339.8 118.8 339.1 117.9 339.1C117 339.1 116.5 339.8 116.5 341C116.5 342.2 117 343 117.9 343C118.8 343 119.3 342.3 119.3 341ZM121.8 338.2H122.8V339.1H122.9C123.2 338.4 123.8 338 124.5 338.1C125 338.1 125.6 338.3 125.9 338.7C126.3 339.1 126.4 339.7 126.4 340.2V343.9H125.3V340.5C125.3 339.6 124.9 339.1 124.1 339.1C123.7 339.1 123.4 339.2 123.1 339.5C122.9 339.8 122.7 340.2 122.8 340.5V343.8H121.7L121.8 338.2ZM132.4 336.8V338.2H133.6V339.1H132.4V342C132.4 342.6 132.6 342.9 133.2 342.9C133.3 342.9 133.5 342.9 133.6 342.9V343.8C133.4 343.8 133.2 343.9 133 343.9C131.8 343.9 131.3 343.5 131.3 342.4V339.2H130.4V338.3H131.3V336.9L132.4 336.8ZM135.1 336H136.2V339.1H136.3C136.6 338.4 137.2 338 137.9 338.1C138.4 338.1 139 338.3 139.3 338.7C139.7 339.1 139.8 339.7 139.8 340.2V343.9H138.7V340.5C138.7 339.6 138.3 339.1 137.5 339.1C137.1 339.1 136.8 339.2 136.5 339.5C136.2 339.8 136.1 340.2 136.1 340.5V343.8H135V336H135.1ZM145.9 342.3C145.6 343.4 144.6 344.1 143.6 343.9C142.9 343.9 142.2 343.6 141.7 343C141.2 342.4 141 341.7 141.1 340.9C141 340.2 141.2 339.4 141.7 338.8C142.2 338.2 142.9 337.9 143.6 337.9C145.1 337.9 146 339 146 340.8V341.2H142.2V341.3C142.2 341.7 142.3 342.1 142.6 342.4C142.9 342.7 143.3 342.9 143.7 342.9C144.2 343 144.7 342.7 145 342.2C144.9 342.3 145.9 342.3 145.9 342.3ZM142.2 340.5H144.9C144.9 340.1 144.8 339.7 144.5 339.5C144.3 339.2 143.9 339.1 143.5 339.1C143.1 339.1 142.8 339.3 142.5 339.5C142.3 339.8 142.2 340.1 142.2 340.5ZM50.5 349.8C50.5 347.8 51.6 345.9 53.3 344.8C52.2 343.2 50.5 342.3 48.6 342.2C46.6 342 44.7 343.4 43.7 343.4C42.7 343.4 41.1 342.2 39.4 342.3C37.2 342.4 35.2 343.6 34.1 345.6C31.8 349.6 33.5 355.5 35.7 358.7C36.8 360.3 38.1 362 39.8 362C41.4 361.9 42.1 360.9 44 360.9C46 360.9 46.5 362 48.3 361.9C50.1 361.9 51.2 360.3 52.2 358.7C53 357.6 53.6 356.3 54 355C51.9 354.2 50.5 352.1 50.5 349.8ZM47.3 340.2C48.3 339 48.7 337.5 48.6 336C47.1 336.2 45.8 336.9 44.8 338C43.8 339.1 43.3 340.5 43.4 342C45 342 46.4 341.3 47.3 340.2Z" fill="white"/>
</g>
<path d="M0.5 251C0.5 247.962 2.96243 245.5 6 245.5H388C391.038 245.5 393.5 247.962 393.5 251V294C393.5 297.038 391.038 299.5 388 299.5H6.00001C2.96244 299.5 0.5 297.038 0.5 294V251Z" fill="#F0F0F2" stroke="#F0F0F2"/>
<path d="M122.844 273.454H117.781V276.882H123.723V279H115.145V266.203H123.705V268.339H117.781V271.389H122.844V273.454ZM127.44 269.49L127.52 270.589C128.199 269.739 129.11 269.314 130.253 269.314C131.261 269.314 132.011 269.61 132.503 270.202C132.995 270.794 133.247 271.679 133.259 272.856V279H130.719V272.918C130.719 272.379 130.602 271.989 130.367 271.749C130.133 271.503 129.743 271.38 129.198 271.38C128.483 271.38 127.947 271.685 127.59 272.294V279H125.05V269.49H127.44ZM138.233 267.152V269.49H139.859V271.354H138.233V276.1C138.233 276.451 138.301 276.703 138.436 276.855C138.57 277.008 138.828 277.084 139.209 277.084C139.49 277.084 139.739 277.063 139.956 277.022V278.947C139.458 279.1 138.945 279.176 138.418 279.176C136.637 279.176 135.729 278.276 135.693 276.478V271.354H134.305V269.49H135.693V267.152H138.233ZM145.651 279.176C144.257 279.176 143.12 278.748 142.241 277.893C141.368 277.037 140.932 275.897 140.932 274.474V274.228C140.932 273.272 141.116 272.42 141.485 271.67C141.854 270.914 142.376 270.334 143.05 269.93C143.729 269.52 144.503 269.314 145.37 269.314C146.671 269.314 147.693 269.725 148.438 270.545C149.188 271.365 149.562 272.528 149.562 274.034V275.071H143.507C143.589 275.692 143.835 276.19 144.245 276.565C144.661 276.94 145.186 277.128 145.818 277.128C146.797 277.128 147.562 276.773 148.112 276.064L149.36 277.462C148.979 278.001 148.464 278.423 147.813 278.728C147.163 279.026 146.442 279.176 145.651 279.176ZM145.361 271.371C144.857 271.371 144.447 271.541 144.131 271.881C143.82 272.221 143.621 272.707 143.533 273.34H147.066V273.138C147.055 272.575 146.902 272.142 146.609 271.837C146.316 271.526 145.9 271.371 145.361 271.371ZM156.356 271.872C156.011 271.825 155.706 271.802 155.442 271.802C154.481 271.802 153.852 272.127 153.553 272.777V279H151.013V269.49H153.412L153.482 270.624C153.992 269.751 154.698 269.314 155.601 269.314C155.882 269.314 156.146 269.353 156.392 269.429L156.356 271.872ZM164.451 269.49L164.53 270.554C165.204 269.728 166.115 269.314 167.264 269.314C168.488 269.314 169.329 269.798 169.786 270.765C170.454 269.798 171.406 269.314 172.643 269.314C173.674 269.314 174.441 269.616 174.945 270.22C175.449 270.817 175.701 271.72 175.701 272.927V279H173.152V272.936C173.152 272.396 173.047 272.004 172.836 271.758C172.625 271.506 172.253 271.38 171.72 271.38C170.958 271.38 170.431 271.743 170.138 272.47L170.146 279H167.606V272.944C167.606 272.394 167.498 271.995 167.281 271.749C167.064 271.503 166.695 271.38 166.174 271.38C165.453 271.38 164.932 271.679 164.609 272.276V279H162.069V269.49H164.451ZM177.266 274.157C177.266 273.214 177.447 272.373 177.811 271.635C178.174 270.896 178.695 270.325 179.375 269.921C180.061 269.517 180.854 269.314 181.757 269.314C183.04 269.314 184.086 269.707 184.895 270.492C185.709 271.277 186.163 272.344 186.257 273.691L186.274 274.342C186.274 275.801 185.867 276.973 185.053 277.857C184.238 278.736 183.146 279.176 181.774 279.176C180.403 279.176 179.308 278.736 178.487 277.857C177.673 276.979 177.266 275.783 177.266 274.271V274.157ZM179.806 274.342C179.806 275.244 179.976 275.936 180.315 276.416C180.655 276.891 181.142 277.128 181.774 277.128C182.39 277.128 182.87 276.894 183.216 276.425C183.562 275.95 183.734 275.194 183.734 274.157C183.734 273.272 183.562 272.587 183.216 272.101C182.87 271.614 182.384 271.371 181.757 271.371C181.136 271.371 180.655 271.614 180.315 272.101C179.976 272.581 179.806 273.328 179.806 274.342ZM196.408 274.333C196.408 275.856 196.083 277.046 195.433 277.901C194.782 278.751 193.874 279.176 192.708 279.176C191.677 279.176 190.854 278.78 190.238 277.989L190.124 279H187.839V265.5H190.379V270.343C190.965 269.657 191.735 269.314 192.69 269.314C193.851 269.314 194.759 269.742 195.415 270.598C196.077 271.447 196.408 272.646 196.408 274.192V274.333ZM193.868 274.148C193.868 273.188 193.716 272.487 193.411 272.048C193.106 271.603 192.652 271.38 192.049 271.38C191.24 271.38 190.684 271.711 190.379 272.373V276.126C190.689 276.794 191.252 277.128 192.066 277.128C192.887 277.128 193.426 276.724 193.684 275.915C193.807 275.528 193.868 274.939 193.868 274.148ZM200.662 279H198.113V269.49H200.662V279ZM197.964 267.029C197.964 266.648 198.09 266.335 198.342 266.089C198.6 265.843 198.948 265.72 199.388 265.72C199.821 265.72 200.167 265.843 200.425 266.089C200.683 266.335 200.812 266.648 200.812 267.029C200.812 267.416 200.68 267.732 200.416 267.979C200.158 268.225 199.815 268.348 199.388 268.348C198.96 268.348 198.614 268.225 198.351 267.979C198.093 267.732 197.964 267.416 197.964 267.029ZM205.443 279H202.895V265.5H205.443V279ZM211.921 279.176C210.526 279.176 209.39 278.748 208.511 277.893C207.638 277.037 207.201 275.897 207.201 274.474V274.228C207.201 273.272 207.386 272.42 207.755 271.67C208.124 270.914 208.646 270.334 209.319 269.93C209.999 269.52 210.772 269.314 211.64 269.314C212.94 269.314 213.963 269.725 214.707 270.545C215.457 271.365 215.832 272.528 215.832 274.034V275.071H209.776C209.858 275.692 210.104 276.19 210.515 276.565C210.931 276.94 211.455 277.128 212.088 277.128C213.066 277.128 213.831 276.773 214.382 276.064L215.63 277.462C215.249 278.001 214.733 278.423 214.083 278.728C213.433 279.026 212.712 279.176 211.921 279.176ZM211.631 271.371C211.127 271.371 210.717 271.541 210.4 271.881C210.09 272.221 209.891 272.707 209.803 273.34H213.336V273.138C213.324 272.575 213.172 272.142 212.879 271.837C212.586 271.526 212.17 271.371 211.631 271.371ZM224.103 269.49L224.182 270.589C224.861 269.739 225.772 269.314 226.915 269.314C227.923 269.314 228.673 269.61 229.165 270.202C229.657 270.794 229.909 271.679 229.921 272.856V279H227.381V272.918C227.381 272.379 227.264 271.989 227.029 271.749C226.795 271.503 226.405 271.38 225.86 271.38C225.146 271.38 224.609 271.685 224.252 272.294V279H221.712V269.49H224.103ZM237.55 278.033C236.923 278.795 236.056 279.176 234.948 279.176C233.929 279.176 233.149 278.883 232.61 278.297C232.077 277.711 231.805 276.853 231.793 275.722V269.49H234.333V275.634C234.333 276.624 234.784 277.119 235.687 277.119C236.548 277.119 237.14 276.82 237.462 276.223V269.49H240.011V279H237.62L237.55 278.033ZM244.309 269.49L244.388 270.554C245.062 269.728 245.973 269.314 247.121 269.314C248.346 269.314 249.187 269.798 249.644 270.765C250.312 269.798 251.264 269.314 252.5 269.314C253.531 269.314 254.299 269.616 254.803 270.22C255.307 270.817 255.559 271.72 255.559 272.927V279H253.01V272.936C253.01 272.396 252.904 272.004 252.693 271.758C252.482 271.506 252.11 271.38 251.577 271.38C250.815 271.38 250.288 271.743 249.995 272.47L250.004 279H247.464V272.944C247.464 272.394 247.355 271.995 247.139 271.749C246.922 271.503 246.553 271.38 246.031 271.38C245.311 271.38 244.789 271.679 244.467 272.276V279H241.927V269.49H244.309ZM266.088 274.333C266.088 275.856 265.763 277.046 265.112 277.901C264.462 278.751 263.554 279.176 262.388 279.176C261.356 279.176 260.533 278.78 259.918 277.989L259.804 279H257.519V265.5H260.059V270.343C260.645 269.657 261.415 269.314 262.37 269.314C263.53 269.314 264.438 269.742 265.095 270.598C265.757 271.447 266.088 272.646 266.088 274.192V274.333ZM263.548 274.148C263.548 273.188 263.396 272.487 263.091 272.048C262.786 271.603 262.332 271.38 261.729 271.38C260.92 271.38 260.363 271.711 260.059 272.373V276.126C260.369 276.794 260.932 277.128 261.746 277.128C262.566 277.128 263.105 276.724 263.363 275.915C263.486 275.528 263.548 274.939 263.548 274.148ZM272.038 279.176C270.644 279.176 269.507 278.748 268.628 277.893C267.755 277.037 267.318 275.897 267.318 274.474V274.228C267.318 273.272 267.503 272.42 267.872 271.67C268.241 270.914 268.763 270.334 269.437 269.93C270.116 269.52 270.89 269.314 271.757 269.314C273.058 269.314 274.08 269.725 274.824 270.545C275.574 271.365 275.949 272.528 275.949 274.034V275.071H269.894C269.976 275.692 270.222 276.19 270.632 276.565C271.048 276.94 271.572 277.128 272.205 277.128C273.184 277.128 273.948 276.773 274.499 276.064L275.747 277.462C275.366 278.001 274.851 278.423 274.2 278.728C273.55 279.026 272.829 279.176 272.038 279.176ZM271.748 271.371C271.244 271.371 270.834 271.541 270.518 271.881C270.207 272.221 270.008 272.707 269.92 273.34H273.453V273.138C273.441 272.575 273.289 272.142 272.996 271.837C272.703 271.526 272.287 271.371 271.748 271.371ZM282.743 271.872C282.397 271.825 282.093 271.802 281.829 271.802C280.868 271.802 280.238 272.127 279.939 272.777V279H277.399V269.49H279.799L279.869 270.624C280.379 269.751 281.085 269.314 281.987 269.314C282.269 269.314 282.532 269.353 282.778 269.429L282.743 271.872Z" fill="black" fill-opacity="0.35"/>
<path d="M414.5 259C414.5 251.544 420.544 245.5 428 245.5H556C563.456 245.5 569.5 251.544 569.5 259V286C569.5 293.456 563.456 299.5 556 299.5H428C420.544 299.5 414.5 293.456 414.5 286V259Z" fill="#00CCCC" stroke="#00CCCC"/>
<path d="M460.394 274.643C460.394 274.145 460.218 273.764 459.866 273.5C459.515 273.23 458.882 272.949 457.968 272.656C457.054 272.357 456.33 272.064 455.797 271.777C454.344 270.992 453.617 269.935 453.617 268.604C453.617 267.913 453.811 267.298 454.197 266.759C454.59 266.214 455.149 265.789 455.876 265.484C456.608 265.18 457.429 265.027 458.337 265.027C459.251 265.027 460.065 265.194 460.78 265.528C461.495 265.856 462.049 266.322 462.441 266.926C462.84 267.529 463.039 268.215 463.039 268.982H460.402C460.402 268.396 460.218 267.942 459.849 267.62C459.479 267.292 458.961 267.128 458.293 267.128C457.648 267.128 457.147 267.266 456.79 267.541C456.433 267.811 456.254 268.168 456.254 268.613C456.254 269.029 456.462 269.378 456.878 269.659C457.3 269.94 457.918 270.204 458.732 270.45C460.232 270.901 461.325 271.461 462.011 272.129C462.696 272.797 463.039 273.629 463.039 274.625C463.039 275.732 462.62 276.603 461.782 277.235C460.944 277.862 459.816 278.176 458.398 278.176C457.414 278.176 456.518 277.997 455.709 277.64C454.9 277.276 454.282 276.781 453.854 276.154C453.433 275.527 453.222 274.801 453.222 273.975H455.867C455.867 275.387 456.711 276.093 458.398 276.093C459.025 276.093 459.515 275.967 459.866 275.715C460.218 275.457 460.394 275.1 460.394 274.643ZM469.042 278.176C467.647 278.176 466.511 277.748 465.632 276.893C464.759 276.037 464.322 274.897 464.322 273.474V273.228C464.322 272.272 464.507 271.42 464.876 270.67C465.245 269.914 465.767 269.334 466.44 268.93C467.12 268.52 467.894 268.314 468.761 268.314C470.062 268.314 471.084 268.725 471.828 269.545C472.578 270.365 472.953 271.528 472.953 273.034V274.071H466.897C466.979 274.692 467.226 275.19 467.636 275.565C468.052 275.94 468.576 276.128 469.209 276.128C470.188 276.128 470.952 275.773 471.503 275.064L472.751 276.462C472.37 277.001 471.854 277.423 471.204 277.728C470.554 278.026 469.833 278.176 469.042 278.176ZM468.752 270.371C468.248 270.371 467.838 270.541 467.521 270.881C467.211 271.221 467.012 271.707 466.924 272.34H470.457V272.138C470.445 271.575 470.293 271.142 470 270.837C469.707 270.526 469.291 270.371 468.752 270.371ZM476.741 268.49L476.82 269.589C477.5 268.739 478.411 268.314 479.554 268.314C480.562 268.314 481.312 268.61 481.804 269.202C482.296 269.794 482.548 270.679 482.56 271.856V278H480.02V271.918C480.02 271.379 479.902 270.989 479.668 270.749C479.434 270.503 479.044 270.38 478.499 270.38C477.784 270.38 477.248 270.685 476.891 271.294V278H474.351V268.49H476.741ZM484.098 273.175C484.098 271.692 484.429 270.512 485.091 269.633C485.759 268.754 486.67 268.314 487.824 268.314C488.75 268.314 489.515 268.66 490.118 269.352V264.5H492.667V278H490.373L490.25 276.989C489.617 277.78 488.803 278.176 487.807 278.176C486.688 278.176 485.788 277.736 485.108 276.857C484.435 275.973 484.098 274.745 484.098 273.175ZM486.638 273.359C486.638 274.25 486.793 274.933 487.104 275.407C487.414 275.882 487.865 276.119 488.457 276.119C489.242 276.119 489.796 275.788 490.118 275.126V271.373C489.802 270.711 489.254 270.38 488.475 270.38C487.25 270.38 486.638 271.373 486.638 273.359ZM501.922 275.882H507.521V278H499.285V265.203H501.922V275.882ZM511.555 278H509.006V268.49H511.555V278ZM508.856 266.029C508.856 265.648 508.982 265.335 509.234 265.089C509.492 264.843 509.841 264.72 510.28 264.72C510.714 264.72 511.06 264.843 511.317 265.089C511.575 265.335 511.704 265.648 511.704 266.029C511.704 266.416 511.572 266.732 511.309 266.979C511.051 267.225 510.708 267.348 510.28 267.348C509.853 267.348 509.507 267.225 509.243 266.979C508.985 266.732 508.856 266.416 508.856 266.029ZM515.993 268.49L516.072 269.589C516.752 268.739 517.663 268.314 518.806 268.314C519.813 268.314 520.563 268.61 521.056 269.202C521.548 269.794 521.8 270.679 521.812 271.856V278H519.271V271.918C519.271 271.379 519.154 270.989 518.92 270.749C518.686 270.503 518.296 270.38 517.751 270.38C517.036 270.38 516.5 270.685 516.143 271.294V278H513.603V268.49H515.993ZM527.199 274.186L526.285 275.1V278H523.745V264.5H526.285V271.979L526.777 271.347L529.212 268.49H532.262L528.825 272.454L532.561 278H529.643L527.199 274.186Z" fill="#0F2336"/>
<path d="M75.3926 136.937H61.916V145.408H77.834V152H53.3467V116.453H77.8828V123.069H61.916V130.564H75.3926V136.937ZM88.5029 125.584L88.7715 128.685C90.5944 126.292 93.109 125.096 96.3154 125.096C99.0661 125.096 101.117 125.918 102.468 127.562C103.835 129.205 104.543 131.679 104.592 134.983V152H96.3398V135.325C96.3398 133.991 96.0713 133.014 95.5342 132.396C94.9971 131.761 94.0205 131.443 92.6045 131.443C90.9932 131.443 89.7969 132.078 89.0156 133.348V152H80.7881V125.584H88.5029ZM118.02 125.584V152.903C118.003 156.028 117.108 158.437 115.334 160.13C113.56 161.823 111.086 162.669 107.912 162.669C106.545 162.669 105.251 162.531 104.03 162.254V156.028C104.974 156.175 105.747 156.248 106.35 156.248C108.628 156.248 109.768 155.117 109.768 152.854V125.584H118.02ZM109.157 118.772C109.157 117.601 109.58 116.64 110.427 115.892C111.273 115.143 112.372 114.769 113.723 114.769C115.074 114.769 116.172 115.143 117.019 115.892C117.865 116.64 118.288 117.601 118.288 118.772C118.288 119.944 117.865 120.905 117.019 121.653C116.172 122.402 115.074 122.776 113.723 122.776C112.372 122.776 111.273 122.402 110.427 121.653C109.58 120.905 109.157 119.944 109.157 118.772ZM121.657 138.548C121.657 135.911 122.17 133.567 123.195 131.517C124.221 129.45 125.694 127.863 127.614 126.756C129.535 125.649 131.789 125.096 134.377 125.096C138.332 125.096 141.449 126.325 143.728 128.782C146.006 131.224 147.146 134.552 147.146 138.768V139.061C147.146 143.178 145.998 146.45 143.703 148.875C141.424 151.284 138.332 152.488 134.426 152.488C130.666 152.488 127.647 151.365 125.368 149.119C123.09 146.857 121.861 143.797 121.682 139.939L121.657 138.548ZM129.885 139.061C129.885 141.502 130.267 143.292 131.032 144.432C131.797 145.571 132.928 146.141 134.426 146.141C137.355 146.141 138.853 143.886 138.918 139.378V138.548C138.918 133.812 137.404 131.443 134.377 131.443C131.626 131.443 130.137 133.486 129.909 137.571L129.885 139.061ZM160.939 140.477L165.334 125.584H174.147L163.381 156.419L162.917 157.542C161.387 160.96 158.685 162.669 154.812 162.669C153.737 162.669 152.606 162.506 151.418 162.181V156.297H152.492C153.648 156.297 154.527 156.126 155.129 155.784C155.747 155.459 156.203 154.865 156.496 154.002L157.155 152.244L147.976 125.584H156.765L160.939 140.477ZM199.318 140.477L203.713 125.584H212.526L201.76 156.419L201.296 157.542C199.766 160.96 197.064 162.669 193.19 162.669C192.116 162.669 190.985 162.506 189.797 162.181V156.297H190.871C192.027 156.297 192.906 156.126 193.508 155.784C194.126 155.459 194.582 154.865 194.875 154.002L195.534 152.244L186.354 125.584H195.144L199.318 140.477ZM213.259 138.548C213.259 135.911 213.771 133.567 214.797 131.517C215.822 129.45 217.295 127.863 219.216 126.756C221.136 125.649 223.391 125.096 225.979 125.096C229.934 125.096 233.05 126.325 235.329 128.782C237.608 131.224 238.747 134.552 238.747 138.768V139.061C238.747 143.178 237.6 146.45 235.305 148.875C233.026 151.284 229.934 152.488 226.027 152.488C222.268 152.488 219.248 151.365 216.97 149.119C214.691 146.857 213.462 143.797 213.283 139.939L213.259 138.548ZM221.486 139.061C221.486 141.502 221.869 143.292 222.634 144.432C223.399 145.571 224.53 146.141 226.027 146.141C228.957 146.141 230.454 143.886 230.52 139.378V138.548C230.52 133.812 229.006 131.443 225.979 131.443C223.228 131.443 221.739 133.486 221.511 137.571L221.486 139.061ZM258.107 149.144C256.366 151.373 254.014 152.488 251.052 152.488C248.155 152.488 245.957 151.65 244.46 149.974C242.979 148.281 242.238 145.856 242.238 142.698V125.584H250.466V142.747C250.466 145.009 251.564 146.141 253.762 146.141C255.65 146.141 256.993 145.465 257.79 144.114V125.584H266.066V152H258.352L258.107 149.144ZM286.574 133.03L283.864 132.835C281.276 132.835 279.616 133.649 278.884 135.276V152H270.656V125.584H278.371L278.64 128.978C280.023 126.39 281.952 125.096 284.426 125.096C285.305 125.096 286.07 125.193 286.721 125.389L286.574 133.03ZM316.872 152C316.579 151.463 316.319 150.674 316.091 149.632C314.577 151.536 312.461 152.488 309.743 152.488C307.253 152.488 305.137 151.74 303.396 150.242C301.654 148.729 300.783 146.832 300.783 144.554C300.783 141.689 301.841 139.524 303.957 138.06C306.073 136.595 309.149 135.862 313.186 135.862H315.725V134.471C315.725 132.046 314.675 130.833 312.575 130.833C310.622 130.833 309.646 131.793 309.646 133.714H301.418C301.418 131.159 302.5 129.083 304.665 127.488C306.846 125.893 309.621 125.096 312.99 125.096C316.359 125.096 319.021 125.918 320.974 127.562C322.927 129.205 323.928 131.46 323.977 134.324V146.019C324.009 148.444 324.383 150.299 325.1 151.585V152H316.872ZM311.721 146.629C312.746 146.629 313.592 146.409 314.26 145.97C314.943 145.53 315.432 145.034 315.725 144.48V140.257H313.332C310.467 140.257 309.035 141.543 309.035 144.114C309.035 144.863 309.287 145.473 309.792 145.945C310.297 146.401 310.939 146.629 311.721 146.629ZM330.373 152V131.297H326.54V125.584H330.373V123.484C330.373 120.473 331.26 118.138 333.034 116.478C334.808 114.817 337.299 113.987 340.505 113.987C341.677 113.987 342.963 114.158 344.362 114.5L344.387 120.555C343.882 120.408 343.207 120.335 342.36 120.335C339.87 120.335 338.625 121.409 338.625 123.558V125.584H343.776V131.297H338.625V152H330.373ZM356.252 119.017V125.584H360.598V131.297H356.252V143.382C356.252 144.375 356.431 145.066 356.789 145.457C357.147 145.848 357.855 146.043 358.913 146.043C359.727 146.043 360.41 145.994 360.964 145.896V151.78C359.483 152.252 357.937 152.488 356.325 152.488C353.493 152.488 351.402 151.821 350.051 150.486C348.7 149.152 348.024 147.125 348.024 144.407V131.297H344.655V125.584H348.024V119.017H356.252ZM376.638 152.488C372.585 152.488 369.305 151.284 366.799 148.875C364.292 146.45 363.039 143.3 363.039 139.427V138.743C363.039 136.041 363.535 133.657 364.528 131.59C365.537 129.523 367.002 127.928 368.923 126.805C370.843 125.665 373.122 125.096 375.759 125.096C379.47 125.096 382.399 126.251 384.548 128.562C386.696 130.857 387.771 134.064 387.771 138.182V141.38H371.413C371.706 142.861 372.349 144.025 373.342 144.871C374.335 145.717 375.62 146.141 377.199 146.141C379.803 146.141 381.838 145.229 383.303 143.406L387.062 147.85C386.037 149.266 384.58 150.397 382.692 151.243C380.821 152.073 378.802 152.488 376.638 152.488ZM375.71 131.443C373.301 131.443 371.869 133.038 371.413 136.229H379.714V135.594C379.746 134.275 379.413 133.258 378.713 132.542C378.013 131.81 377.012 131.443 375.71 131.443ZM407.082 133.03L404.372 132.835C401.784 132.835 400.124 133.649 399.392 135.276V152H391.164V125.584H398.879L399.147 128.978C400.531 126.39 402.46 125.096 404.934 125.096C405.812 125.096 406.577 125.193 407.229 125.389L407.082 133.03ZM417.604 125.584L417.873 128.685C419.696 126.292 422.211 125.096 425.417 125.096C428.168 125.096 430.218 125.918 431.569 127.562C432.937 129.205 433.645 131.679 433.693 134.983V152H425.441V135.325C425.441 133.991 425.173 133.014 424.636 132.396C424.099 131.761 423.122 131.443 421.706 131.443C420.095 131.443 418.898 132.078 418.117 133.348V152H409.89V125.584H417.604ZM437.233 138.548C437.233 135.911 437.746 133.567 438.771 131.517C439.797 129.45 441.27 127.863 443.19 126.756C445.111 125.649 447.365 125.096 449.953 125.096C453.908 125.096 457.025 126.325 459.304 128.782C461.582 131.224 462.722 134.552 462.722 138.768V139.061C462.722 143.178 461.574 146.45 459.279 148.875C457.001 151.284 453.908 152.488 450.002 152.488C446.242 152.488 443.223 151.365 440.944 149.119C438.666 146.857 437.437 143.797 437.258 139.939L437.233 138.548ZM445.461 139.061C445.461 141.502 445.843 143.292 446.608 144.432C447.373 145.571 448.505 146.141 450.002 146.141C452.932 146.141 454.429 143.886 454.494 139.378V138.548C454.494 133.812 452.98 131.443 449.953 131.443C447.202 131.443 445.713 133.486 445.485 137.571L445.461 139.061ZM465.31 138.548C465.31 135.911 465.822 133.567 466.848 131.517C467.873 129.45 469.346 127.863 471.267 126.756C473.187 125.649 475.441 125.096 478.029 125.096C481.984 125.096 485.101 126.325 487.38 128.782C489.659 131.224 490.798 134.552 490.798 138.768V139.061C490.798 143.178 489.65 146.45 487.355 148.875C485.077 151.284 481.984 152.488 478.078 152.488C474.318 152.488 471.299 151.365 469.021 149.119C466.742 146.857 465.513 143.797 465.334 139.939L465.31 138.548ZM473.537 139.061C473.537 141.502 473.92 143.292 474.685 144.432C475.45 145.571 476.581 146.141 478.078 146.141C481.008 146.141 482.505 143.886 482.57 139.378V138.548C482.57 133.812 481.057 131.443 478.029 131.443C475.279 131.443 473.789 133.486 473.562 137.571L473.537 139.061ZM501.979 125.584L502.248 128.685C504.071 126.292 506.586 125.096 509.792 125.096C512.543 125.096 514.593 125.918 515.944 127.562C517.312 129.205 518.02 131.679 518.068 134.983V152H509.816V135.325C509.816 133.991 509.548 133.014 509.011 132.396C508.474 131.761 507.497 131.443 506.081 131.443C504.47 131.443 503.273 132.078 502.492 133.348V152H494.265V125.584H501.979ZM115.31 179.017V185.584H119.655V191.297H115.31V203.382C115.31 204.375 115.489 205.066 115.847 205.457C116.205 205.848 116.913 206.043 117.971 206.043C118.785 206.043 119.468 205.994 120.021 205.896V211.78C118.54 212.252 116.994 212.488 115.383 212.488C112.551 212.488 110.459 211.821 109.108 210.486C107.757 209.152 107.082 207.125 107.082 204.407V191.297H103.713V185.584H107.082V179.017H115.31ZM135.695 212.488C131.643 212.488 128.363 211.284 125.856 208.875C123.35 206.45 122.097 203.3 122.097 199.427V198.743C122.097 196.041 122.593 193.657 123.586 191.59C124.595 189.523 126.06 187.928 127.98 186.805C129.901 185.665 132.18 185.096 134.816 185.096C138.527 185.096 141.457 186.251 143.605 188.562C145.754 190.857 146.828 194.064 146.828 198.182V201.38H130.471C130.764 202.861 131.407 204.025 132.399 204.871C133.392 205.717 134.678 206.141 136.257 206.141C138.861 206.141 140.896 205.229 142.36 203.406L146.12 207.85C145.095 209.266 143.638 210.397 141.75 211.243C139.878 212.073 137.86 212.488 135.695 212.488ZM134.768 191.443C132.359 191.443 130.926 193.038 130.471 196.229H138.771V195.594C138.804 194.275 138.47 193.258 137.771 192.542C137.071 191.81 136.07 191.443 134.768 191.443ZM165.041 212C164.748 211.463 164.488 210.674 164.26 209.632C162.746 211.536 160.63 212.488 157.912 212.488C155.422 212.488 153.306 211.74 151.564 210.242C149.823 208.729 148.952 206.832 148.952 204.554C148.952 201.689 150.01 199.524 152.126 198.06C154.242 196.595 157.318 195.862 161.354 195.862H163.894V194.471C163.894 192.046 162.844 190.833 160.744 190.833C158.791 190.833 157.814 191.793 157.814 193.714H149.587C149.587 191.159 150.669 189.083 152.834 187.488C155.015 185.893 157.79 185.096 161.159 185.096C164.528 185.096 167.189 185.918 169.143 187.562C171.096 189.205 172.097 191.46 172.146 194.324V206.019C172.178 208.444 172.552 210.299 173.269 211.585V212H165.041ZM159.89 206.629C160.915 206.629 161.761 206.409 162.429 205.97C163.112 205.53 163.601 205.034 163.894 204.48V200.257H161.501C158.636 200.257 157.204 201.543 157.204 204.114C157.204 204.863 157.456 205.473 157.961 205.945C158.465 206.401 159.108 206.629 159.89 206.629ZM211.989 201.16L214.65 185.584H222.536L216.311 212H209.353L204.982 196.326L200.588 212H193.63L187.404 185.584H195.29L197.902 201.526L202.102 185.584H207.839L211.989 201.16ZM234.182 212H225.93V185.584H234.182V212ZM225.441 178.772C225.441 177.601 225.865 176.64 226.711 175.892C227.557 175.143 228.656 174.769 230.007 174.769C231.358 174.769 232.456 175.143 233.303 175.892C234.149 176.64 234.572 177.601 234.572 178.772C234.572 179.944 234.149 180.905 233.303 181.653C232.456 182.402 231.358 182.776 230.007 182.776C228.656 182.776 227.557 182.402 226.711 181.653C225.865 180.905 225.441 179.944 225.441 178.772ZM248.854 179.017V185.584H253.2V191.297H248.854V203.382C248.854 204.375 249.034 205.066 249.392 205.457C249.75 205.848 250.458 206.043 251.516 206.043C252.329 206.043 253.013 205.994 253.566 205.896V211.78C252.085 212.252 250.539 212.488 248.928 212.488C246.096 212.488 244.004 211.821 242.653 210.486C241.302 209.152 240.627 207.125 240.627 204.407V191.297H237.258V185.584H240.627V179.017H248.854ZM264.504 188.416C266.262 186.202 268.508 185.096 271.242 185.096C274.156 185.096 276.353 185.958 277.834 187.684C279.315 189.409 280.072 191.956 280.104 195.325V212H271.853V195.521C271.853 194.121 271.568 193.095 270.998 192.444C270.428 191.777 269.46 191.443 268.093 191.443C266.4 191.443 265.204 191.98 264.504 193.055V212H256.276V174.5H264.504V188.416ZM312.014 212C311.721 211.463 311.46 210.674 311.232 209.632C309.719 211.536 307.603 212.488 304.885 212.488C302.395 212.488 300.279 211.74 298.537 210.242C296.796 208.729 295.925 206.832 295.925 204.554C295.925 201.689 296.983 199.524 299.099 198.06C301.215 196.595 304.291 195.862 308.327 195.862H310.866V194.471C310.866 192.046 309.816 190.833 307.717 190.833C305.764 190.833 304.787 191.793 304.787 193.714H296.56C296.56 191.159 297.642 189.083 299.807 187.488C301.988 185.893 304.763 185.096 308.132 185.096C311.501 185.096 314.162 185.918 316.115 187.562C318.068 189.205 319.069 191.46 319.118 194.324V206.019C319.151 208.444 319.525 210.299 320.241 211.585V212H312.014ZM306.862 206.629C307.888 206.629 308.734 206.409 309.401 205.97C310.085 205.53 310.573 205.034 310.866 204.48V200.257H308.474C305.609 200.257 304.177 201.543 304.177 204.114C304.177 204.863 304.429 205.473 304.934 205.945C305.438 206.401 306.081 206.629 306.862 206.629ZM349.978 204.578C349.978 203.878 349.611 203.317 348.879 202.894C348.146 202.47 346.755 202.031 344.704 201.575C342.653 201.119 340.961 200.525 339.626 199.793C338.291 199.044 337.274 198.141 336.574 197.083C335.874 196.025 335.524 194.812 335.524 193.445C335.524 191.02 336.525 189.026 338.527 187.464C340.529 185.885 343.15 185.096 346.389 185.096C349.872 185.096 352.671 185.885 354.787 187.464C356.903 189.043 357.961 191.118 357.961 193.689H349.709C349.709 191.574 348.594 190.516 346.364 190.516C345.502 190.516 344.777 190.76 344.191 191.248C343.605 191.72 343.312 192.314 343.312 193.03C343.312 193.763 343.671 194.357 344.387 194.812C345.103 195.268 346.242 195.643 347.805 195.936C349.383 196.229 350.767 196.578 351.955 196.985C355.926 198.353 357.912 200.802 357.912 204.334C357.912 206.743 356.838 208.704 354.689 210.218C352.557 211.731 349.79 212.488 346.389 212.488C344.126 212.488 342.108 212.081 340.334 211.268C338.56 210.454 337.176 209.347 336.184 207.947C335.191 206.548 334.694 205.075 334.694 203.528H342.385C342.417 204.749 342.824 205.644 343.605 206.214C344.387 206.767 345.388 207.044 346.608 207.044C347.731 207.044 348.57 206.816 349.123 206.36C349.693 205.905 349.978 205.311 349.978 204.578ZM369.338 185.584L369.606 188.685C371.429 186.292 373.944 185.096 377.15 185.096C379.901 185.096 381.952 185.918 383.303 187.562C384.67 189.205 385.378 191.679 385.427 194.983V212H377.175V195.325C377.175 193.991 376.906 193.014 376.369 192.396C375.832 191.761 374.855 191.443 373.439 191.443C371.828 191.443 370.632 192.078 369.851 193.348V212H361.623V185.584H369.338ZM404.885 212C404.592 211.463 404.331 210.674 404.104 209.632C402.59 211.536 400.474 212.488 397.756 212.488C395.266 212.488 393.15 211.74 391.408 210.242C389.667 208.729 388.796 206.832 388.796 204.554C388.796 201.689 389.854 199.524 391.97 198.06C394.086 196.595 397.162 195.862 401.198 195.862H403.737V194.471C403.737 192.046 402.688 190.833 400.588 190.833C398.635 190.833 397.658 191.793 397.658 193.714H389.431C389.431 191.159 390.513 189.083 392.678 187.488C394.859 185.893 397.634 185.096 401.003 185.096C404.372 185.096 407.033 185.918 408.986 187.562C410.939 189.205 411.94 191.46 411.989 194.324V206.019C412.022 208.444 412.396 210.299 413.112 211.585V212H404.885ZM399.733 206.629C400.759 206.629 401.605 206.409 402.272 205.97C402.956 205.53 403.444 205.034 403.737 204.48V200.257H401.345C398.48 200.257 397.048 201.543 397.048 204.114C397.048 204.863 397.3 205.473 397.805 205.945C398.309 206.401 398.952 206.629 399.733 206.629ZM427.736 206.141C428.892 206.141 429.787 205.831 430.422 205.213C431.057 204.578 431.366 203.699 431.35 202.576H439.064C439.064 205.473 438.023 207.85 435.939 209.705C433.872 211.561 431.203 212.488 427.932 212.488C424.09 212.488 421.063 211.284 418.85 208.875C416.636 206.466 415.529 203.13 415.529 198.865V198.523C415.529 195.854 416.018 193.502 416.994 191.468C417.987 189.417 419.411 187.846 421.267 186.756C423.122 185.649 425.319 185.096 427.858 185.096C431.293 185.096 434.019 186.048 436.037 187.952C438.055 189.856 439.064 192.436 439.064 195.691H431.35C431.35 194.324 431.016 193.274 430.349 192.542C429.681 191.81 428.786 191.443 427.663 191.443C425.531 191.443 424.286 192.802 423.928 195.521C423.814 196.383 423.757 197.571 423.757 199.085C423.757 201.738 424.074 203.577 424.709 204.603C425.344 205.628 426.353 206.141 427.736 206.141ZM453.151 202.161L450.832 204.48V212H442.604V174.476H450.832V194.397L451.662 193.299L457.863 185.584H467.727L458.474 196.448L468.337 212H458.913L453.151 202.161Z" fill="#0F2336"/>
<g clip-path="url(#clip2_1_199)">
<path fill-rule="evenodd" clip-rule="evenodd" d="M284.8 81.8872C319.94 81.8872 348.6 79.9102 348.6 77.4872C348.6 75.0632 319.94 73.0872 284.8 73.0872C249.66 73.0872 221 75.0632 221 77.4872C221 79.9102 249.66 81.8872 284.8 81.8872Z" fill="#E0E3E6"/>
<path fill-rule="evenodd" clip-rule="evenodd" d="M246.153 70.8631H322.12V24.2871H246.153V70.8631Z" fill="#F0F1F1"/>
<path fill-rule="evenodd" clip-rule="evenodd" d="M314.551 69.9272H249.246C248.566 69.9272 247.809 69.8472 247.09 69.8612V25.2222H319.026C319.706 25.2222 320.464 25.3022 321.183 25.2882V69.9272H314.55H314.551ZM322.12 23.3512H255.504C252.443 23.3512 249.348 23.2202 246.289 23.3512C246.244 23.3532 246.199 23.3512 246.153 23.3512C245.647 23.3512 245.217 23.7802 245.217 24.2872V70.8632C245.217 71.3682 245.647 71.7982 246.153 71.7982H312.769C315.83 71.7982 318.924 71.9292 321.984 71.7982C322.029 71.7962 322.074 71.7982 322.12 71.7982C322.394 71.7982 322.603 71.6982 322.752 71.5482L322.784 71.5182L322.801 71.5002C322.954 71.3502 323.055 71.1402 323.055 70.8632V24.2872C323.055 23.7812 322.627 23.3512 322.12 23.3512Z" fill="#292C6A"/>
<mask id="mask0_1_199" style="mask-type:alpha" maskUnits="userSpaceOnUse" x="239" y="0" width="90" height="78">
<path d="M239.486 77.8311H328.853V0.297119H239.486V77.8311Z" fill="white"/>
</mask>
<g mask="url(#mask0_1_199)">
<path fill-rule="evenodd" clip-rule="evenodd" d="M240.331 75.9291H327.827V70.8621H240.331V75.9291Z" fill="#F0F1F1"/>
<path fill-rule="evenodd" clip-rule="evenodd" d="M319.221 75.8972H243.999C243.159 75.8972 242.233 75.8022 241.357 75.8312V71.7972H324.339C325.179 71.7972 326.105 71.8932 326.982 71.8632V75.8962H319.221V75.8972ZM327.917 69.9272H251.206C247.672 69.9272 244.106 69.7862 240.573 69.9272C240.523 69.9292 240.472 69.9272 240.421 69.9272C239.916 69.9272 239.486 70.3552 239.486 70.8622V76.8332C239.486 77.3382 239.915 77.7682 240.421 77.7682H317.132C320.667 77.7682 324.233 77.9092 327.766 77.7682C327.816 77.7662 327.866 77.7682 327.917 77.7682C328.423 77.7682 328.853 77.3402 328.853 76.8332V70.8622C328.853 70.3572 328.424 69.9272 327.917 69.9272Z" fill="#292C6A"/>
<path fill-rule="evenodd" clip-rule="evenodd" d="M297.661 70.8622H315.104V40.0042H297.661V70.8622Z" fill="#39C0C4"/>
<path fill-rule="evenodd" clip-rule="evenodd" d="M299.848 69.9271H298.597V40.9391H314.169V69.9271H299.849H299.848ZM315.104 39.0681H297.661C297.156 39.0681 296.726 39.4971 296.726 40.0041V70.8631C296.726 71.3681 297.154 71.7981 297.661 71.7981H315.104C315.379 71.7981 315.587 71.6981 315.737 71.5481L315.768 71.5181L315.786 71.4991C315.938 71.3491 316.04 71.1391 316.04 70.8631V40.0031C316.04 39.4981 315.61 39.0681 315.104 39.0681Z" fill="#292C6A"/>
<path fill-rule="evenodd" clip-rule="evenodd" d="M254.361 54.5051H288.994V40.0042H254.361V54.5051Z" fill="#D4DAE0"/>
<path fill-rule="evenodd" clip-rule="evenodd" d="M277.285 53.5691H255.296V40.9391H288.058V53.5691H277.285ZM289.929 40.0041C289.929 39.4981 289.5 39.0681 288.994 39.0681H254.361C253.855 39.0681 253.425 39.4971 253.425 40.0041V54.5051C253.425 55.0111 253.854 55.4411 254.36 55.4411H288.993C289.268 55.4411 289.477 55.3411 289.626 55.1911L289.658 55.1611L289.675 55.1421C289.828 54.9921 289.929 54.7821 289.929 54.5051V40.0041Z" fill="#292C6A"/>
<path fill-rule="evenodd" clip-rule="evenodd" d="M252.568 24.5272L256.403 1.23218H266.413L265.106 24.5272C265.106 24.5272 264.731 30.7962 258.836 30.7962C252.943 30.7962 252.569 24.5272 252.569 24.5272H252.568ZM277.641 24.5272V1.23218H290.177V24.5272C290.177 24.5272 289.989 30.7962 283.908 30.7962C277.828 30.7962 277.641 24.5272 277.641 24.5272ZM302.714 24.5272L302.339 1.23218H312.723L315.25 24.5272C315.25 24.5272 314.968 29.8602 309.73 30.7022C304.49 31.5442 302.84 26.7822 302.714 24.5272Z" fill="#F0F1F1"/>
<path fill-rule="evenodd" clip-rule="evenodd" d="M327.786 24.5272L322.922 1.23218H312.723L315.25 24.5272C315.25 24.5272 315.25 30.7962 321.518 30.7962C327.786 30.7962 327.786 24.5272 327.786 24.5272ZM266.414 1.23218H277.641V24.5282C277.641 24.5282 276.988 30.7022 271.373 30.7962C265.759 30.8892 265.105 24.5282 265.105 24.5282L266.414 1.23218ZM290.176 1.23218L290.177 24.5282C290.177 24.5282 290.459 30.8892 296.446 30.7962C302.432 30.7022 302.714 24.5282 302.714 24.5282L302.339 1.23218H290.176ZM256.403 1.23218L254.753 11.2562C254.057 15.4882 253.328 19.7162 252.663 23.9542C252.407 25.5812 252.101 27.0602 251.077 28.4242C249.932 29.9502 248.189 30.7342 246.3 30.7962C240.499 30.9832 240.483 24.3402 240.483 24.3402L246.673 1.23218H256.403Z" fill="#39C0C4"/>
<path fill-rule="evenodd" clip-rule="evenodd" d="M326.326 26.9111C325.616 28.5731 324.181 29.6071 322.386 29.8161C320.382 30.0501 318.251 29.4961 317.132 27.7091C316.539 26.7611 316.262 25.5741 316.192 24.6941L316.177 24.5191C316.19 23.4641 316.041 22.3691 315.883 21.2891C315.463 17.0561 314.916 12.8271 314.458 8.60312L313.76 2.16812H322.162L326.282 21.8921L326.849 24.6051C326.835 25.3351 326.675 26.0931 326.326 26.9111ZM314.261 24.9301C313.983 26.2951 313.426 27.5901 312.362 28.5311C310.676 30.0211 307.719 30.4191 305.867 29.0191C304.52 28.0011 303.76 26.1811 303.649 24.5271L303.638 23.7871V23.7851L303.533 17.2831L303.527 16.9141C303.447 12.0011 303.441 7.08012 303.295 2.16812H311.889L313.458 16.6301L313.809 19.8671C313.982 21.4611 314.138 23.0581 314.309 24.6521C314.312 24.8431 314.327 24.6041 314.261 24.9301ZM301.699 25.1221C301.654 25.3381 301.608 25.5521 301.55 25.7651C301.399 26.3221 301.193 26.8551 300.906 27.3571C300.19 28.6111 299.051 29.4431 297.633 29.7391C294.545 30.3841 292.08 28.6831 291.323 25.7291C291.167 25.1241 291.122 24.9211 291.113 24.5031V24.3951C291.177 23.2851 291.113 22.1591 291.113 21.0611V9.46712V2.16712H301.418L301.604 13.7191L301.734 21.7851V21.7861L301.777 24.4651C301.771 24.5821 301.763 24.6981 301.752 24.8151V24.8171L301.745 24.8531C301.731 24.9431 301.717 25.0331 301.699 25.1211V25.1221ZM289.235 24.6531C289.232 24.7131 289.224 24.7731 289.218 24.8331L289.208 24.9551C289.208 24.9451 289.208 24.9261 289.197 24.9991C289.099 25.5951 288.95 26.1951 288.719 26.7541C288.062 28.3411 286.785 29.4541 285.079 29.7661C282.839 30.1741 280.546 29.4221 279.409 27.3861C279.059 26.7631 278.837 26.0821 278.693 25.3841C278.601 24.9401 278.593 24.9851 278.577 24.5261V16.8271C278.577 11.9431 278.66 7.05112 278.585 2.16712H289.241V18.3791L289.242 22.6071C289.242 23.1541 289.232 23.6901 289.249 24.2251C289.246 24.3241 289.246 24.4231 289.242 24.5221L289.235 24.6541V24.6531ZM272.3 29.7771C269.264 30.3301 267.066 28.3511 266.276 25.5711C266.182 25.2381 266.105 24.8991 266.048 24.5581C266.192 23.2961 266.183 21.9981 266.253 20.7501C266.348 19.0481 266.443 17.3471 266.54 15.6451L267.297 2.16912H276.706V24.5261L276.693 24.5831C276.186 26.9771 274.925 29.2991 272.3 29.7761V29.7771ZM264.167 24.5621C264.161 24.6451 264.16 24.6791 264.16 24.6931C264.158 24.6951 264.154 24.7121 264.142 24.7821C264.045 25.3571 263.906 25.9261 263.698 26.4721C263.093 28.0651 261.905 29.3121 260.216 29.7131C258.018 30.2351 255.679 29.4971 254.492 27.5301C254.092 26.8651 253.825 26.1431 253.651 25.3901C253.599 25.1681 253.559 24.9451 253.524 24.7201C253.521 24.6901 253.511 24.6151 253.507 24.5581L256.039 9.17412C256.424 6.83912 256.809 4.50412 257.192 2.16812H265.426L264.74 14.3631L264.567 17.4531L264.535 18.0151L264.471 19.1491L264.289 22.4061C264.259 22.9161 264.217 23.4081 264.205 23.8971L264.171 24.4971L264.167 24.5621ZM251.451 25.3321C251.048 26.9941 250.186 28.4941 248.616 29.2901C247.39 29.9101 245.831 30.0641 244.518 29.6331C242.818 29.0771 241.962 27.4301 241.6 25.7861C241.476 25.2281 241.522 24.9831 241.422 24.4481L241.466 24.2861C241.77 23.2351 242.033 22.1701 242.316 21.1131L245.387 9.65012L247.392 2.16712H255.306L254.068 9.68712C253.876 10.8521 253.685 12.0171 253.49 13.1831C253.138 15.2981 252.782 17.4131 252.434 19.5301C252.362 19.9621 252.297 20.3981 252.234 20.8341C252.204 21.0111 252.174 21.1891 252.146 21.3661L251.691 24.1261C251.647 24.2361 251.626 24.3641 251.633 24.5111C251.577 24.7851 251.517 25.0591 251.451 25.3311V25.3321ZM328.686 24.2641L324.426 3.86712L323.822 0.984119C323.739 0.585119 323.312 0.297119 322.92 0.297119H246.674C246.265 0.297119 245.878 0.587119 245.771 0.984119L240.476 20.7471C240.193 21.8051 239.869 22.8601 239.626 23.9271C239.437 24.7471 239.646 25.6681 239.839 26.4711C240.307 28.4031 241.417 30.2711 243.272 31.1391C246.01 32.4221 249.619 31.6121 251.563 29.3091C251.957 28.8421 252.27 28.3431 252.525 27.8211C253.387 29.5411 254.836 30.9361 256.752 31.4631C259.046 32.0951 261.689 31.6631 263.491 30.0681C264.193 29.4471 264.741 28.6621 265.151 27.8091C266.055 29.5971 267.533 31.0641 269.565 31.5391C272.873 32.3121 276.015 30.7511 277.545 27.8451C278.357 29.4851 279.725 30.8211 281.523 31.3901C283.797 32.1081 286.561 31.7661 288.435 30.2441C289.181 29.6381 289.762 28.8581 290.193 28.0001C291.101 29.7701 292.631 31.1601 294.693 31.5701C298.009 32.2271 301.185 30.8511 302.707 27.9241C303.963 30.3761 306.381 32.0341 309.458 31.6761C311.805 31.4031 313.965 30.0011 315.174 28.0081C315.406 28.4821 315.684 28.9341 316.02 29.3501C317.495 31.1751 319.863 31.8741 322.148 31.7071C325.97 31.4281 328.705 28.3371 328.723 24.5271C328.723 24.4301 328.708 24.3441 328.687 24.2631" fill="#292C6A"/>
</g>
</g>
<defs>
<linearGradient id="paint0_linear_1_199" x1="250.401" y1="337.428" x2="238.925" y2="348.836" gradientUnits="userSpaceOnUse">
<stop stop-color="#00A0FF"/>
<stop offset="0.01" stop-color="#00A1FF"/>
<stop offset="0.26" stop-color="#00BEFF"/>
<stop offset="0.51" stop-color="#00D2FF"/>
<stop offset="0.76" stop-color="#00DFFF"/>
<stop offset="1" stop-color="#00E3FF"/>
</linearGradient>
<linearGradient id="paint1_linear_1_199" x1="267.586" y1="349.5" x2="241.426" y2="349.5" gradientUnits="userSpaceOnUse">
<stop stop-color="#FFE000"/>
<stop offset="0.41" stop-color="#FFBD00"/>
<stop offset="0.78" stop-color="#FFA500"/>
<stop offset="1" stop-color="#FF9C00"/>
</linearGradient>
<linearGradient id="paint2_linear_1_199" x1="256.644" y1="352.583" x2="237.078" y2="372.024" gradientUnits="userSpaceOnUse">
<stop stop-color="#FF3A44"/>
<stop offset="1" stop-color="#C31162"/>
</linearGradient>
<linearGradient id="paint3_linear_1_199" x1="237.688" y1="335.342" x2="246.42" y2="344.024" gradientUnits="userSpaceOnUse">
<stop stop-color="#32A071"/>
<stop offset="0.07" stop-color="#2DA771"/>
<stop offset="0.48" stop-color="#15CF74"/>
<stop offset="0.8" stop-color="#06E775"/>
<stop offset="1" stop-color="#00F076"/>
</linearGradient>
<clipPath id="clip0_1_199">
<rect width="185" height="60" fill="white" transform="translate(209 320)"/>
</clipPath>
<clipPath id="clip1_1_199">
<rect width="185" height="60" fill="white" transform="translate(0 320)"/>
</clipPath>
<clipPath id="clip2_1_199">
<rect width="128" height="82" fill="white" transform="translate(221)"/>
</clipPath>
</defs>
</svg>
