<svg width="1440" height="297" viewBox="0 0 1440 297" fill="none" xmlns="http://www.w3.org/2000/svg">
<g clip-path="url(#clip0_1_248)">
<rect width="1440" height="297" fill="#0F2336"/>
<mask id="mask0_1_248" style="mask-type:alpha" maskUnits="userSpaceOnUse" x="1313" y="44" width="161" height="195">
<path d="M1313.31 44H1473V238.789H1313.31V44Z" fill="white"/>
</mask>
<g mask="url(#mask0_1_248)">
<path fill-rule="evenodd" clip-rule="evenodd" d="M1439.41 234.425C1468.45 214.495 1474.47 178.274 1472.72 145.831C1472.43 140.414 1472.96 134.694 1470.15 129.981C1467.35 125.273 1460.94 122.126 1455.86 124.492C1451.65 126.456 1449.88 131.165 1447.57 135.075C1444.51 140.277 1439.87 144.615 1434.38 147.429C1430.77 149.279 1426.28 150.446 1422.65 148.625C1417.67 146.127 1416.98 139.68 1416.91 134.288C1416.8 124.242 1416.68 114.197 1416.57 104.152C1416.51 98.7632 1416.43 93.2608 1414.56 88.1744C1412.7 83.0869 1408.71 78.4011 1403.27 77.0515C1397.83 75.7019 1391.2 78.7651 1390.15 84.0595C1389.71 86.2623 1390.22 88.5337 1390.11 90.7732C1389.99 93.0126 1388.93 95.505 1386.7 96.1645C1384.44 96.8334 1382.14 95.3431 1380.41 93.7914C1374.44 88.4462 1370.33 81.5009 1366.48 74.5898C1362.63 67.6788 1358.89 60.6011 1353.45 54.7501C1348.02 48.9026 1340.57 44.3185 1332.41 44.0124C1324.26 43.7087 1315.66 48.6107 1313.74 56.2202C1311.81 63.8533 1316.63 71.4853 1321.83 77.5537C1329.55 86.5566 1338.63 94.4828 1348.7 101C1350.51 102.179 1352.48 103.449 1353.2 105.434C1354.5 109.008 1350.97 112.634 1347.25 113.875C1343.03 115.282 1338.43 114.938 1334 115.506C1329.57 116.073 1324.8 118.004 1323.19 122.002C1320.96 127.548 1325.93 133.243 1330.78 136.948C1340.5 144.366 1351.55 150.171 1363.29 154.032C1367.5 155.416 1371.93 156.617 1375.35 159.35C1378.78 162.08 1380.9 166.889 1378.93 170.718C1376.96 174.553 1371.75 175.851 1367.35 175.15C1362.96 174.452 1358.99 172.261 1354.79 170.837C1346.92 168.166 1336.83 168.839 1331.94 175.321C1328.73 179.581 1328.54 185.446 1330.3 190.433C1332.05 195.422 1335.5 199.686 1339.16 203.615C1351.94 217.339 1368.18 228.29 1386.43 233.953C1404.67 239.618 1421.5 240.96 1439.41 234.425Z" fill="#F3AF47"/>
<path fill-rule="evenodd" clip-rule="evenodd" d="M1442.2 283.662C1442.75 276.427 1442.34 272.359 1440.84 259.437C1439.37 246.52 1436.13 231.29 1430.78 214.906C1425.46 198.509 1418.07 180.995 1409.68 162.931C1407.56 158.425 1405.48 153.97 1403.42 149.579C1401.35 145.202 1399.3 140.86 1397.02 136.732C1392.5 128.456 1387.5 120.829 1382.51 113.731C1377.52 106.627 1372.52 100.058 1367.8 93.9515C1363.06 87.8524 1358.53 82.246 1354.17 77.3049C1345.48 67.3874 1337.51 60.1951 1331.81 55.4715C1328.97 53.1008 1326.71 51.3305 1325.16 50.1511L1323.38 48.8181C1322.98 48.5226 1322.77 48.3784 1322.75 48.3914C1322.74 48.4068 1322.93 48.577 1323.32 48.8984C1323.74 49.2482 1324.31 49.7138 1325.02 50.3059C1326.53 51.5385 1328.75 53.3537 1331.55 55.7658C1337.15 60.5756 1345.02 67.8199 1353.61 77.7635C1357.92 82.7199 1362.4 88.3393 1367.1 94.4526C1371.79 100.578 1376.76 107.152 1381.72 114.25C1386.67 121.345 1391.64 128.955 1396.12 137.192C1398.38 141.302 1400.41 145.606 1402.47 149.996C1404.53 154.384 1406.62 158.839 1408.73 163.342C1417.11 181.39 1424.51 198.85 1429.87 215.185C1435.25 231.505 1438.55 246.656 1440.11 259.516C1441.7 272.382 1442.22 276.408 1441.8 283.634" fill="#263238"/>
<path fill-rule="evenodd" clip-rule="evenodd" d="M1395.22 134.757C1395.28 134.769 1395.44 133.944 1395.67 132.443C1395.9 130.947 1396.18 128.768 1396.48 126.071C1397.09 120.681 1397.7 113.204 1398.35 104.959C1399 96.7075 1399.71 89.2611 1400.39 83.8958C1400.72 81.2131 1401.02 79.0422 1401.23 77.5461C1401.45 76.0476 1401.53 75.2097 1401.47 75.1955C1401.41 75.1813 1401.21 75.992 1400.89 77.4692C1400.56 78.9465 1400.18 81.1056 1399.76 83.7859C1398.91 89.1441 1398.1 96.6082 1397.45 104.868C1396.83 113.007 1396.27 120.369 1395.84 125.996C1395.64 128.536 1395.46 130.678 1395.32 132.395C1395.2 133.905 1395.16 134.747 1395.22 134.757Z" fill="#263238"/>
<path fill-rule="evenodd" clip-rule="evenodd" d="M1322.75 122.95C1322.75 123.018 1323.78 123.115 1325.64 123.233C1327.49 123.363 1330.18 123.534 1333.49 123.848C1340.12 124.427 1349.24 125.533 1359.25 127.179C1369.26 128.841 1378.25 130.717 1384.72 132.254C1387.95 133.001 1390.56 133.672 1392.36 134.127C1394.16 134.588 1395.17 134.812 1395.19 134.745C1395.21 134.679 1394.24 134.329 1392.47 133.751C1390.7 133.18 1388.12 132.404 1384.9 131.565C1378.46 129.846 1369.46 127.854 1359.42 126.185C1349.38 124.537 1340.21 123.538 1333.55 123.14C1330.22 122.915 1327.52 122.85 1325.65 122.844C1323.79 122.846 1322.76 122.88 1322.75 122.95ZM1429.84 212.187C1429.88 212.201 1430.04 211.905 1430.32 211.332L1431.51 208.798C1432.52 206.591 1433.91 203.364 1435.57 199.355C1438.9 191.337 1443.14 180.122 1447.64 167.688C1452.15 155.248 1456.27 144.009 1459.42 135.937C1460.96 132.01 1462.23 128.784 1463.18 126.384L1464.19 123.779C1464.41 123.18 1464.51 122.859 1464.48 122.844C1464.44 122.833 1464.28 123.126 1464 123.701L1462.81 126.234C1461.79 128.437 1460.4 131.668 1458.74 135.676C1455.41 143.692 1451.18 154.907 1446.67 167.348C1442.17 179.785 1438.05 191.023 1434.9 199.097C1433.35 203.018 1432.08 206.25 1431.14 208.645C1430.73 209.688 1430.4 210.548 1430.13 211.252C1429.91 211.852 1429.81 212.172 1429.84 212.187Z" fill="#263238"/>
<path fill-rule="evenodd" clip-rule="evenodd" d="M1332.2 182.417C1332.19 182.453 1332.53 182.583 1333.17 182.8C1333.94 183.042 1334.87 183.339 1336.01 183.702L1346.47 186.906C1355.29 189.615 1367.44 193.498 1380.86 197.803C1394.29 202.114 1406.49 205.886 1415.37 208.412C1419.81 209.676 1423.42 210.663 1425.92 211.294C1427.08 211.578 1428.04 211.811 1428.81 212.003C1429.47 212.153 1429.83 212.216 1429.84 212.178C1429.85 212.143 1429.51 212.014 1428.87 211.795L1426.03 210.896L1415.58 207.692C1406.75 204.982 1394.6 201.1 1381.17 196.791C1367.76 192.483 1355.56 188.71 1346.67 186.185C1342.23 184.919 1338.63 183.933 1336.12 183.301L1333.23 182.592C1332.57 182.443 1332.21 182.382 1332.2 182.417Z" fill="#263238"/>
</g>
<mask id="mask1_1_248" style="mask-type:alpha" maskUnits="userSpaceOnUse" x="1285" y="161" width="179" height="172">
<path d="M1366.37 161.532L1285 227.782L1381.92 332.209L1463.29 265.959L1366.37 161.532Z" fill="white"/>
</mask>
<g mask="url(#mask1_1_248)">
<path fill-rule="evenodd" clip-rule="evenodd" d="M1446.15 274.156C1448.72 251.221 1431.88 229.678 1413.51 213.458C1410.45 210.752 1407.59 207.53 1403.75 206.273C1399.91 205.02 1395.26 206.131 1394.21 209.558C1393.33 212.398 1395.07 215.624 1396.13 218.664C1397.53 222.706 1397.75 226.972 1396.75 230.809C1396.09 233.331 1394.65 235.874 1392 236.483C1388.36 237.321 1384.55 234.248 1381.6 231.456C1376.11 226.247 1370.62 221.043 1365.13 215.836C1362.18 213.045 1359.17 210.199 1355.56 208.341C1351.95 206.482 1347.57 205.749 1344.34 207.384C1341.11 209.021 1339.72 213.483 1342.1 216.703C1343.09 218.045 1344.56 219.012 1345.72 220.235C1346.88 221.457 1347.74 223.214 1347.07 224.521C1346.39 225.844 1344.53 226.056 1342.89 225.989C1337.25 225.763 1331.6 223.899 1326.09 221.941C1320.58 219.982 1315.03 217.891 1309.36 217.17C1303.7 216.45 1297.79 217.266 1293.87 220.615C1289.95 223.969 1288.66 230.234 1291.89 235.042C1295.14 239.865 1301.48 241.784 1307.16 242.72C1315.58 244.105 1324.05 244.343 1332.21 243.417C1333.68 243.251 1335.27 243.068 1336.68 243.798C1339.22 245.107 1339.56 248.522 1338.52 250.776C1337.34 253.328 1335.03 255.132 1333.3 257.335C1331.57 259.537 1330.42 262.601 1331.85 265.387C1333.83 269.249 1339.19 270.091 1343.43 269.938C1351.91 269.634 1360.14 267.915 1367.63 264.877C1370.32 263.788 1373 262.509 1376.05 262.462C1379.11 262.417 1382.69 264.018 1383.85 266.869C1385.02 269.724 1383.33 272.65 1380.93 274.175C1378.53 275.705 1375.52 276.264 1372.81 277.33C1367.75 279.321 1363.48 284.017 1364.74 289.513C1365.56 293.129 1368.65 296.275 1372.16 298.129C1375.67 299.984 1379.56 300.727 1383.37 301.209C1396.68 302.883 1410.08 301.62 1421.53 296.727C1432.99 291.835 1441.45 285.287 1446.15 274.156Z" fill="#E8505B"/>
</g>
<mask id="mask2_1_248" style="mask-type:alpha" maskUnits="userSpaceOnUse" x="1285" y="161" width="179" height="172">
<path d="M1366.37 161.532L1285 227.782L1381.92 332.209L1463.29 265.959L1366.37 161.532Z" fill="white"/>
</mask>
<g mask="url(#mask2_1_248)">
<path fill-rule="evenodd" clip-rule="evenodd" d="M1446.15 274.156C1448.72 251.221 1431.88 229.678 1413.51 213.458C1410.45 210.752 1407.59 207.53 1403.75 206.273C1399.91 205.02 1395.26 206.131 1394.21 209.558C1393.33 212.398 1395.07 215.624 1396.13 218.664C1397.53 222.706 1397.75 226.972 1396.75 230.809C1396.09 233.331 1394.65 235.874 1392 236.483C1388.36 237.321 1384.55 234.248 1381.6 231.456C1376.11 226.247 1370.62 221.043 1365.13 215.836C1362.18 213.045 1359.17 210.199 1355.56 208.341C1351.95 206.482 1347.57 205.749 1344.34 207.384C1341.11 209.021 1339.72 213.483 1342.1 216.703C1343.09 218.045 1344.56 219.012 1345.72 220.235C1346.88 221.457 1347.74 223.214 1347.07 224.521C1346.39 225.844 1344.53 226.056 1342.89 225.989C1337.25 225.763 1331.6 223.899 1326.09 221.941C1320.58 219.982 1315.03 217.891 1309.36 217.17C1303.7 216.45 1297.79 217.266 1293.87 220.615C1289.95 223.969 1288.66 230.234 1291.89 235.042C1295.14 239.865 1301.48 241.784 1307.16 242.72C1315.58 244.105 1324.05 244.343 1332.21 243.417C1333.68 243.251 1335.27 243.068 1336.68 243.798C1339.22 245.107 1339.56 248.522 1338.52 250.776C1337.34 253.328 1335.03 255.132 1333.3 257.335C1331.57 259.537 1330.42 262.601 1331.85 265.387C1333.83 269.249 1339.19 270.091 1343.43 269.938C1351.91 269.634 1360.14 267.915 1367.63 264.877C1370.32 263.788 1373 262.509 1376.05 262.462C1379.11 262.417 1382.69 264.018 1383.85 266.869C1385.02 269.724 1383.33 272.65 1380.93 274.175C1378.53 275.705 1375.52 276.264 1372.81 277.33C1367.75 279.321 1363.48 284.017 1364.74 289.513C1365.56 293.129 1368.65 296.275 1372.16 298.129C1375.67 299.984 1379.56 300.727 1383.37 301.209C1396.68 302.883 1410.08 301.62 1421.53 296.727C1432.99 291.835 1441.45 285.287 1446.15 274.156Z" fill="#F8CD99"/>
<mask id="mask3_1_248" style="mask-type:alpha" maskUnits="userSpaceOnUse" x="1289" y="176" width="190" height="187">
<path d="M1354.27 176.124L1289.6 228.832L1413.56 362.53L1478.23 309.822L1354.27 176.124Z" fill="white"/>
</mask>
<g mask="url(#mask3_1_248)">
<path fill-rule="evenodd" clip-rule="evenodd" d="M1289.6 228.833C1289.6 228.845 1289.78 228.854 1290.12 228.857C1290.5 228.859 1291.01 228.858 1291.65 228.864C1292.99 228.862 1294.96 228.859 1297.51 228.924C1302.61 229.042 1310.04 229.456 1319.24 230.968C1323.83 231.705 1328.86 232.715 1334.26 233.889C1339.65 235.073 1345.41 236.371 1351.44 237.95C1357.47 239.527 1363.79 241.36 1370.21 243.728C1373.43 244.899 1376.65 246.27 1379.93 247.666C1383.21 249.069 1386.53 250.493 1389.89 251.93C1403.33 257.728 1416.01 263.636 1427.16 269.827C1438.32 275.999 1447.91 282.449 1455.49 288.454C1463.09 294.447 1468.68 299.934 1472.35 303.858C1474.18 305.83 1475.57 307.384 1476.48 308.464L1477.53 309.678C1477.77 309.95 1477.9 310.086 1477.91 310.082C1477.92 310.074 1477.81 309.927 1477.58 309.641L1476.59 308.39C1475.71 307.282 1474.35 305.701 1472.54 303.699C1468.92 299.72 1463.37 294.161 1455.78 288.101C1448.21 282.033 1438.6 275.512 1427.42 269.293C1416.25 263.055 1403.55 257.114 1390.1 251.314C1386.74 249.873 1383.41 248.452 1380.13 247.051C1376.86 245.659 1373.61 244.279 1370.38 243.107C1363.91 240.736 1357.57 238.905 1351.52 237.342C1345.47 235.778 1339.7 234.495 1334.3 233.334C1328.9 232.186 1323.85 231.203 1319.24 230.488C1310.02 229.035 1302.57 228.693 1297.48 228.658C1294.92 228.633 1292.95 228.677 1291.62 228.725L1290.11 228.789C1289.77 228.805 1289.6 228.819 1289.6 228.832" fill="#263238"/>
</g>
<path fill-rule="evenodd" clip-rule="evenodd" d="M1372.39 242.338C1372.45 242.295 1372.11 241.735 1371.45 240.758C1370.8 239.777 1369.78 238.404 1368.49 236.738C1365.92 233.401 1362.13 228.965 1357.93 224.095C1353.72 219.225 1350.04 214.727 1347.55 211.34C1346.29 209.656 1345.3 208.277 1344.63 207.308C1343.96 206.346 1343.55 205.835 1343.48 205.878C1343.42 205.92 1343.7 206.513 1344.27 207.552C1344.83 208.596 1345.73 210.051 1346.9 211.803C1349.23 215.32 1352.83 219.914 1357.04 224.79C1361.21 229.576 1364.98 233.909 1367.86 237.221C1369.14 238.728 1370.23 239.998 1371.1 241.018C1371.87 241.911 1372.33 242.385 1372.39 242.338ZM1334.9 267.715C1334.93 267.738 1335.43 267.354 1336.32 266.637C1337.21 265.926 1338.49 264.889 1340.12 263.648C1343.34 261.149 1347.91 257.818 1353.09 254.321C1358.27 250.833 1363.08 247.839 1366.61 245.754C1368.37 244.701 1369.81 243.881 1370.8 243.309C1371.8 242.742 1372.34 242.41 1372.33 242.377C1372.31 242.345 1371.74 242.614 1370.71 243.127C1369.68 243.643 1368.21 244.414 1366.42 245.428C1362.83 247.437 1357.98 250.391 1352.78 253.89C1347.58 257.397 1343.04 260.786 1339.87 263.368C1338.27 264.647 1337.02 265.728 1336.17 266.488C1335.33 267.254 1334.88 267.688 1334.9 267.715ZM1430.07 266.279C1430.1 266.272 1430.01 266.046 1429.84 265.626L1429.04 263.793C1428.33 262.204 1427.25 259.923 1425.88 257.117C1423.14 251.503 1419.11 243.836 1414.55 235.418C1409.99 226.999 1405.9 219.368 1403.05 213.806L1399.68 207.206C1399.32 206.489 1399.01 205.901 1398.76 205.414C1398.54 205.007 1398.42 204.798 1398.39 204.803C1398.37 204.814 1398.45 205.038 1398.63 205.458C1398.84 205.953 1399.11 206.557 1399.43 207.289C1400.14 208.879 1401.22 211.16 1402.59 213.966C1405.33 219.58 1409.35 227.248 1413.92 235.668C1418.47 244.084 1422.57 251.714 1425.42 257.28C1426.8 259.99 1427.94 262.219 1428.78 263.875C1429.15 264.592 1429.45 265.183 1429.7 265.669C1429.93 266.075 1430.05 266.286 1430.07 266.279" fill="#263238"/>
<path fill-rule="evenodd" clip-rule="evenodd" d="M1365.81 292.964C1365.83 292.986 1366.06 292.902 1366.49 292.723L1368.35 291.902C1370.05 291.129 1372.34 290.087 1375.13 288.817C1380.86 286.213 1388.83 282.712 1397.64 278.855C1406.45 274.996 1414.39 271.416 1420.05 268.691C1422.88 267.327 1425.15 266.202 1426.7 265.393C1427.42 265.013 1428 264.703 1428.48 264.449C1428.88 264.226 1429.09 264.095 1429.08 264.073C1429.06 264.052 1428.83 264.136 1428.4 264.314C1427.9 264.536 1427.29 264.809 1426.54 265.138L1419.76 268.219C1414.03 270.825 1406.06 274.328 1397.25 278.186C1388.43 282.041 1380.5 285.622 1374.84 288.346C1372.01 289.709 1369.74 290.834 1368.18 291.644C1367.47 292.025 1366.88 292.335 1366.41 292.589C1366 292.812 1365.8 292.94 1365.81 292.964Z" fill="#263238"/>
</g>
</g>
<path d="M1123.64 181.604H1119.47V186H1118.16V176.047H1124.32V177.127H1119.47V180.531H1123.64V181.604ZM1130.42 186C1130.35 185.854 1130.29 185.594 1130.24 185.221C1129.65 185.831 1128.95 186.137 1128.14 186.137C1127.41 186.137 1126.81 185.932 1126.34 185.521C1125.87 185.107 1125.64 184.583 1125.64 183.949C1125.64 183.179 1125.93 182.582 1126.52 182.158C1127.1 181.73 1127.93 181.516 1128.99 181.516H1130.22V180.935C1130.22 180.493 1130.09 180.142 1129.82 179.882C1129.56 179.618 1129.17 179.485 1128.66 179.485C1128.2 179.485 1127.83 179.599 1127.52 179.827C1127.22 180.055 1127.06 180.331 1127.06 180.654H1125.79C1125.79 180.285 1125.92 179.93 1126.18 179.588C1126.45 179.242 1126.8 178.968 1127.25 178.768C1127.7 178.567 1128.19 178.467 1128.73 178.467C1129.58 178.467 1130.25 178.681 1130.73 179.109C1131.22 179.533 1131.47 180.119 1131.49 180.866V184.271C1131.49 184.95 1131.57 185.49 1131.75 185.891V186H1130.42ZM1128.32 185.036C1128.72 185.036 1129.09 184.934 1129.45 184.729C1129.8 184.523 1130.06 184.257 1130.22 183.929V182.411H1129.23C1127.68 182.411 1126.91 182.865 1126.91 183.771C1126.91 184.168 1127.04 184.478 1127.3 184.701C1127.57 184.924 1127.91 185.036 1128.32 185.036ZM1136.82 185.104C1137.28 185.104 1137.67 184.968 1138.01 184.694C1138.34 184.421 1138.53 184.079 1138.57 183.669H1139.76C1139.74 184.093 1139.6 184.496 1139.33 184.879C1139.06 185.262 1138.7 185.567 1138.25 185.795C1137.8 186.023 1137.33 186.137 1136.82 186.137C1135.82 186.137 1135.02 185.802 1134.42 185.132C1133.83 184.457 1133.53 183.537 1133.53 182.37V182.158C1133.53 181.438 1133.66 180.798 1133.93 180.237C1134.19 179.677 1134.57 179.242 1135.06 178.932C1135.56 178.622 1136.14 178.467 1136.82 178.467C1137.65 178.467 1138.34 178.715 1138.88 179.212C1139.43 179.709 1139.73 180.354 1139.76 181.146H1138.57C1138.53 180.668 1138.35 180.276 1138.02 179.971C1137.7 179.661 1137.3 179.506 1136.82 179.506C1136.18 179.506 1135.68 179.738 1135.32 180.203C1134.97 180.663 1134.79 181.331 1134.79 182.206V182.445C1134.79 183.298 1134.97 183.954 1135.32 184.414C1135.67 184.874 1136.17 185.104 1136.82 185.104ZM1144.65 186.137C1143.64 186.137 1142.83 185.809 1142.2 185.152C1141.57 184.492 1141.25 183.61 1141.25 182.507V182.274C1141.25 181.541 1141.39 180.887 1141.67 180.312C1141.95 179.734 1142.35 179.283 1142.85 178.959C1143.35 178.631 1143.9 178.467 1144.49 178.467C1145.45 178.467 1146.2 178.784 1146.73 179.417C1147.26 180.05 1147.53 180.957 1147.53 182.138V182.664H1142.52C1142.54 183.393 1142.75 183.983 1143.16 184.435C1143.57 184.881 1144.09 185.104 1144.71 185.104C1145.16 185.104 1145.54 185.013 1145.85 184.831C1146.16 184.649 1146.43 184.407 1146.66 184.106L1147.43 184.708C1146.81 185.66 1145.89 186.137 1144.65 186.137ZM1144.49 179.506C1143.98 179.506 1143.55 179.693 1143.2 180.066C1142.86 180.436 1142.64 180.955 1142.56 181.625H1146.27V181.529C1146.23 180.887 1146.06 180.39 1145.75 180.039C1145.44 179.684 1145.02 179.506 1144.49 179.506ZM1155.65 182.384C1155.65 183.514 1155.39 184.423 1154.87 185.111C1154.35 185.795 1153.66 186.137 1152.78 186.137C1151.85 186.137 1151.12 185.806 1150.61 185.146L1150.55 186H1149.39V175.5H1150.65V179.417C1151.17 178.784 1151.87 178.467 1152.77 178.467C1153.66 178.467 1154.37 178.806 1154.88 179.485C1155.39 180.164 1155.65 181.094 1155.65 182.274V182.384ZM1154.39 182.24C1154.39 181.379 1154.22 180.714 1153.89 180.244C1153.56 179.775 1153.08 179.54 1152.45 179.54C1151.62 179.54 1151.02 179.927 1150.65 180.702V183.901C1151.04 184.676 1151.65 185.063 1152.47 185.063C1153.07 185.063 1153.54 184.829 1153.88 184.359C1154.22 183.89 1154.39 183.184 1154.39 182.24ZM1157.31 182.233C1157.31 181.509 1157.45 180.857 1157.73 180.278C1158.02 179.7 1158.41 179.253 1158.92 178.938C1159.43 178.624 1160.01 178.467 1160.66 178.467C1161.67 178.467 1162.48 178.815 1163.1 179.513C1163.73 180.21 1164.04 181.137 1164.04 182.295V182.384C1164.04 183.104 1163.9 183.751 1163.62 184.325C1163.35 184.895 1162.96 185.339 1162.44 185.658C1161.93 185.977 1161.34 186.137 1160.68 186.137C1159.67 186.137 1158.86 185.788 1158.24 185.091C1157.62 184.394 1157.31 183.471 1157.31 182.322V182.233ZM1158.58 182.384C1158.58 183.204 1158.77 183.863 1159.15 184.359C1159.53 184.856 1160.04 185.104 1160.68 185.104C1161.32 185.104 1161.83 184.854 1162.21 184.353C1162.59 183.847 1162.78 183.14 1162.78 182.233C1162.78 181.422 1162.58 180.766 1162.19 180.265C1161.81 179.759 1161.3 179.506 1160.66 179.506C1160.04 179.506 1159.53 179.754 1159.15 180.251C1158.77 180.748 1158.58 181.459 1158.58 182.384ZM1165.68 182.233C1165.68 181.509 1165.82 180.857 1166.1 180.278C1166.39 179.7 1166.79 179.253 1167.29 178.938C1167.8 178.624 1168.39 178.467 1169.04 178.467C1170.04 178.467 1170.86 178.815 1171.48 179.513C1172.1 180.21 1172.41 181.137 1172.41 182.295V182.384C1172.41 183.104 1172.28 183.751 1172 184.325C1171.72 184.895 1171.33 185.339 1170.81 185.658C1170.3 185.977 1169.72 186.137 1169.05 186.137C1168.05 186.137 1167.23 185.788 1166.61 185.091C1165.99 184.394 1165.68 183.471 1165.68 182.322V182.233ZM1166.95 182.384C1166.95 183.204 1167.14 183.863 1167.52 184.359C1167.9 184.856 1168.41 185.104 1169.05 185.104C1169.69 185.104 1170.2 184.854 1170.58 184.353C1170.96 183.847 1171.15 183.14 1171.15 182.233C1171.15 181.422 1170.96 180.766 1170.57 180.265C1170.19 179.759 1169.68 179.506 1169.04 179.506C1168.41 179.506 1167.91 179.754 1167.53 180.251C1167.14 180.748 1166.95 181.459 1166.95 182.384ZM1176.45 182.575L1175.66 183.402V186H1174.4V175.5H1175.66V181.851L1176.34 181.037L1178.64 178.604H1180.18L1177.3 181.693L1180.52 186H1179.03L1176.45 182.575Z" fill="white" fill-opacity="0.7"/>
<path d="M1119.56 160H1118.25V150.047H1119.56V160ZM1123.36 152.604L1123.4 153.533C1123.96 152.822 1124.7 152.467 1125.61 152.467C1127.18 152.467 1127.97 153.349 1127.98 155.112V160H1126.71V155.105C1126.71 154.572 1126.59 154.178 1126.35 153.923C1126.11 153.668 1125.74 153.54 1125.23 153.54C1124.82 153.54 1124.46 153.649 1124.15 153.868C1123.84 154.087 1123.6 154.374 1123.43 154.729V160H1122.16V152.604H1123.36ZM1134.58 158.038C1134.58 157.696 1134.45 157.432 1134.19 157.245C1133.94 157.054 1133.49 156.89 1132.85 156.753C1132.21 156.616 1131.7 156.452 1131.32 156.261C1130.95 156.069 1130.67 155.841 1130.49 155.577C1130.31 155.313 1130.22 154.998 1130.22 154.634C1130.22 154.028 1130.48 153.515 1130.99 153.096C1131.5 152.676 1132.16 152.467 1132.96 152.467C1133.79 152.467 1134.47 152.683 1134.99 153.116C1135.52 153.549 1135.78 154.103 1135.78 154.777H1134.51C1134.51 154.431 1134.36 154.132 1134.06 153.882C1133.77 153.631 1133.4 153.506 1132.96 153.506C1132.5 153.506 1132.14 153.606 1131.88 153.807C1131.62 154.007 1131.49 154.269 1131.49 154.593C1131.49 154.898 1131.61 155.128 1131.85 155.283C1132.09 155.438 1132.53 155.586 1133.15 155.728C1133.79 155.869 1134.3 156.037 1134.69 156.233C1135.08 156.429 1135.37 156.666 1135.56 156.944C1135.75 157.218 1135.85 157.553 1135.85 157.949C1135.85 158.61 1135.58 159.141 1135.05 159.542C1134.53 159.938 1133.84 160.137 1133 160.137C1132.4 160.137 1131.88 160.032 1131.42 159.822C1130.97 159.613 1130.61 159.321 1130.35 158.947C1130.1 158.569 1129.97 158.161 1129.97 157.724H1131.23C1131.26 158.147 1131.42 158.485 1131.74 158.735C1132.06 158.981 1132.48 159.104 1133 159.104C1133.48 159.104 1133.86 159.009 1134.15 158.817C1134.44 158.621 1134.58 158.362 1134.58 158.038ZM1139.6 150.812V152.604H1140.98V153.581H1139.6V158.168C1139.6 158.464 1139.66 158.688 1139.79 158.838C1139.91 158.984 1140.12 159.057 1140.41 159.057C1140.56 159.057 1140.76 159.029 1141.02 158.975V160C1140.68 160.091 1140.36 160.137 1140.05 160.137C1139.48 160.137 1139.05 159.966 1138.77 159.624C1138.48 159.282 1138.34 158.797 1138.34 158.168V153.581H1136.99V152.604H1138.34V150.812H1139.6ZM1147.42 160C1147.35 159.854 1147.29 159.594 1147.24 159.221C1146.66 159.831 1145.95 160.137 1145.14 160.137C1144.41 160.137 1143.81 159.932 1143.34 159.521C1142.88 159.107 1142.64 158.583 1142.64 157.949C1142.64 157.179 1142.93 156.582 1143.52 156.158C1144.11 155.73 1144.93 155.516 1145.99 155.516H1147.22V154.935C1147.22 154.493 1147.09 154.142 1146.83 153.882C1146.56 153.618 1146.17 153.485 1145.66 153.485C1145.21 153.485 1144.83 153.599 1144.52 153.827C1144.22 154.055 1144.06 154.331 1144.06 154.654H1142.79C1142.79 154.285 1142.92 153.93 1143.18 153.588C1143.45 153.242 1143.8 152.968 1144.25 152.768C1144.7 152.567 1145.2 152.467 1145.73 152.467C1146.59 152.467 1147.25 152.681 1147.74 153.109C1148.22 153.533 1148.47 154.119 1148.49 154.866V158.271C1148.49 158.95 1148.57 159.49 1148.75 159.891V160H1147.42ZM1145.32 159.036C1145.72 159.036 1146.1 158.934 1146.45 158.729C1146.81 158.523 1147.06 158.257 1147.22 157.929V156.411H1146.23C1144.68 156.411 1143.91 156.865 1143.91 157.771C1143.91 158.168 1144.04 158.478 1144.3 158.701C1144.57 158.924 1144.91 159.036 1145.32 159.036ZM1150.56 156.24C1150.56 155.087 1150.83 154.171 1151.36 153.492C1151.89 152.809 1152.6 152.467 1153.48 152.467C1154.38 152.467 1155.08 152.786 1155.59 153.424L1155.65 152.604H1156.81V159.822C1156.81 160.779 1156.52 161.534 1155.95 162.085C1155.39 162.636 1154.63 162.912 1153.67 162.912C1153.14 162.912 1152.61 162.798 1152.1 162.57C1151.59 162.342 1151.2 162.03 1150.94 161.634L1151.59 160.875C1152.13 161.545 1152.8 161.88 1153.58 161.88C1154.2 161.88 1154.67 161.707 1155.02 161.36C1155.36 161.014 1155.54 160.526 1155.54 159.897V159.262C1155.03 159.845 1154.34 160.137 1153.46 160.137C1152.6 160.137 1151.9 159.788 1151.36 159.091C1150.83 158.394 1150.56 157.443 1150.56 156.24ZM1151.83 156.384C1151.83 157.218 1152 157.874 1152.34 158.353C1152.69 158.826 1153.16 159.063 1153.78 159.063C1154.58 159.063 1155.16 158.701 1155.54 157.977V154.6C1155.15 153.893 1154.57 153.54 1153.79 153.54C1153.18 153.54 1152.7 153.779 1152.35 154.258C1152 154.736 1151.83 155.445 1151.83 156.384ZM1162.69 153.738C1162.5 153.706 1162.29 153.69 1162.06 153.69C1161.24 153.69 1160.67 154.044 1160.38 154.75V160H1159.11V152.604H1160.34L1160.36 153.458C1160.78 152.797 1161.37 152.467 1162.13 152.467C1162.37 152.467 1162.56 152.499 1162.69 152.562V153.738ZM1168.54 160C1168.47 159.854 1168.41 159.594 1168.36 159.221C1167.77 159.831 1167.07 160.137 1166.26 160.137C1165.53 160.137 1164.93 159.932 1164.46 159.521C1163.99 159.107 1163.76 158.583 1163.76 157.949C1163.76 157.179 1164.05 156.582 1164.64 156.158C1165.22 155.73 1166.05 155.516 1167.11 155.516H1168.34V154.935C1168.34 154.493 1168.21 154.142 1167.94 153.882C1167.68 153.618 1167.29 153.485 1166.77 153.485C1166.32 153.485 1165.95 153.599 1165.64 153.827C1165.33 154.055 1165.18 154.331 1165.18 154.654H1163.91C1163.91 154.285 1164.04 153.93 1164.3 153.588C1164.56 153.242 1164.92 152.968 1165.37 152.768C1165.82 152.567 1166.31 152.467 1166.85 152.467C1167.7 152.467 1168.37 152.681 1168.85 153.109C1169.34 153.533 1169.59 154.119 1169.6 154.866V158.271C1169.6 158.95 1169.69 159.49 1169.86 159.891V160H1168.54ZM1166.44 159.036C1166.84 159.036 1167.21 158.934 1167.57 158.729C1167.92 158.523 1168.18 158.257 1168.34 157.929V156.411H1167.35C1165.8 156.411 1165.02 156.865 1165.02 157.771C1165.02 158.168 1165.16 158.478 1165.42 158.701C1165.69 158.924 1166.03 159.036 1166.44 159.036ZM1173.17 152.604L1173.2 153.424C1173.74 152.786 1174.47 152.467 1175.4 152.467C1176.43 152.467 1177.13 152.863 1177.51 153.656C1177.75 153.301 1178.07 153.014 1178.46 152.795C1178.86 152.576 1179.33 152.467 1179.87 152.467C1181.49 152.467 1182.31 153.326 1182.34 155.044V160H1181.08V155.119C1181.08 154.59 1180.96 154.196 1180.71 153.937C1180.47 153.672 1180.07 153.54 1179.5 153.54C1179.03 153.54 1178.64 153.681 1178.33 153.964C1178.02 154.242 1177.84 154.618 1177.79 155.092V160H1176.52V155.153C1176.52 154.078 1175.99 153.54 1174.94 153.54C1174.11 153.54 1173.54 153.893 1173.24 154.6V160H1171.97V152.604H1173.17Z" fill="white" fill-opacity="0.7"/>
<path d="M1125.03 125.127H1121.83V134H1120.53V125.127H1117.33V124.047H1125.03V125.127ZM1132.85 132.257L1134.27 126.604H1135.54L1133.39 134H1132.36L1130.56 128.395L1128.81 134H1127.79L1125.64 126.604H1126.9L1128.35 132.141L1130.08 126.604H1131.1L1132.85 132.257ZM1138.6 134H1137.33V126.604H1138.6V134ZM1137.23 124.642C1137.23 124.437 1137.29 124.263 1137.41 124.122C1137.54 123.981 1137.73 123.91 1137.97 123.91C1138.22 123.91 1138.41 123.981 1138.53 124.122C1138.66 124.263 1138.73 124.437 1138.73 124.642C1138.73 124.847 1138.66 125.018 1138.53 125.154C1138.41 125.291 1138.22 125.359 1137.97 125.359C1137.73 125.359 1137.54 125.291 1137.41 125.154C1137.29 125.018 1137.23 124.847 1137.23 124.642ZM1142.73 124.812V126.604H1144.11V127.581H1142.73V132.168C1142.73 132.464 1142.79 132.688 1142.92 132.838C1143.04 132.984 1143.25 133.057 1143.55 133.057C1143.69 133.057 1143.89 133.029 1144.15 132.975V134C1143.81 134.091 1143.49 134.137 1143.18 134.137C1142.61 134.137 1142.18 133.966 1141.9 133.624C1141.61 133.282 1141.47 132.797 1141.47 132.168V127.581H1140.12V126.604H1141.47V124.812H1142.73ZM1147.7 124.812V126.604H1149.08V127.581H1147.7V132.168C1147.7 132.464 1147.76 132.688 1147.89 132.838C1148.01 132.984 1148.22 133.057 1148.52 133.057C1148.66 133.057 1148.86 133.029 1149.12 132.975V134C1148.78 134.091 1148.46 134.137 1148.15 134.137C1147.58 134.137 1147.15 133.966 1146.87 133.624C1146.58 133.282 1146.44 132.797 1146.44 132.168V127.581H1145.09V126.604H1146.44V124.812H1147.7ZM1154.03 134.137C1153.02 134.137 1152.21 133.809 1151.58 133.152C1150.95 132.492 1150.63 131.61 1150.63 130.507V130.274C1150.63 129.541 1150.77 128.887 1151.05 128.312C1151.33 127.734 1151.73 127.283 1152.23 126.959C1152.73 126.631 1153.28 126.467 1153.87 126.467C1154.83 126.467 1155.58 126.784 1156.11 127.417C1156.64 128.05 1156.91 128.957 1156.91 130.138V130.664H1151.9C1151.92 131.393 1152.13 131.983 1152.53 132.435C1152.95 132.881 1153.46 133.104 1154.09 133.104C1154.54 133.104 1154.92 133.013 1155.23 132.831C1155.54 132.649 1155.81 132.407 1156.04 132.106L1156.81 132.708C1156.19 133.66 1155.26 134.137 1154.03 134.137ZM1153.87 127.506C1153.36 127.506 1152.93 127.693 1152.58 128.066C1152.24 128.436 1152.02 128.955 1151.94 129.625H1155.65V129.529C1155.61 128.887 1155.44 128.39 1155.13 128.039C1154.82 127.684 1154.4 127.506 1153.87 127.506ZM1162.34 127.738C1162.15 127.706 1161.95 127.69 1161.72 127.69C1160.89 127.69 1160.33 128.044 1160.03 128.75V134H1158.77V126.604H1160L1160.02 127.458C1160.44 126.797 1161.02 126.467 1161.78 126.467C1162.03 126.467 1162.22 126.499 1162.34 126.562V127.738Z" fill="white" fill-opacity="0.7"/>
<path d="M1122.89 95.5137H1119.52V99H1117.76V90.4688H1123.32V91.8926H1119.52V94.0957H1122.89V95.5137ZM1123.93 95.7715C1123.93 95.1426 1124.05 94.582 1124.3 94.0898C1124.54 93.5977 1124.89 93.2168 1125.34 92.9473C1125.8 92.6777 1126.32 92.543 1126.93 92.543C1127.78 92.543 1128.48 92.8047 1129.02 93.3281C1129.56 93.8516 1129.86 94.5625 1129.93 95.4609L1129.94 95.8945C1129.94 96.8672 1129.67 97.6484 1129.12 98.2383C1128.58 98.8242 1127.85 99.1172 1126.94 99.1172C1126.02 99.1172 1125.29 98.8242 1124.75 98.2383C1124.2 97.6523 1123.93 96.8555 1123.93 95.8477V95.7715ZM1125.63 95.8945C1125.63 96.4961 1125.74 96.957 1125.97 97.2773C1126.19 97.5938 1126.52 97.752 1126.94 97.752C1127.35 97.752 1127.67 97.5957 1127.9 97.2832C1128.13 96.9668 1128.24 96.4629 1128.24 95.7715C1128.24 95.1816 1128.13 94.7246 1127.9 94.4004C1127.67 94.0762 1127.34 93.9141 1126.93 93.9141C1126.51 93.9141 1126.19 94.0762 1125.97 94.4004C1125.74 94.7207 1125.63 95.2188 1125.63 95.8945ZM1132.87 99H1131.17V90H1132.87V99ZM1136.16 99H1134.46V90H1136.16V99ZM1137.39 95.7715C1137.39 95.1426 1137.51 94.582 1137.76 94.0898C1138 93.5977 1138.35 93.2168 1138.8 92.9473C1139.26 92.6777 1139.78 92.543 1140.39 92.543C1141.24 92.543 1141.94 92.8047 1142.48 93.3281C1143.02 93.8516 1143.32 94.5625 1143.39 95.4609L1143.4 95.8945C1143.4 96.8672 1143.13 97.6484 1142.58 98.2383C1142.04 98.8242 1141.31 99.1172 1140.4 99.1172C1139.48 99.1172 1138.75 98.8242 1138.21 98.2383C1137.66 97.6523 1137.39 96.8555 1137.39 95.8477V95.7715ZM1139.09 95.8945C1139.09 96.4961 1139.2 96.957 1139.43 97.2773C1139.65 97.5938 1139.98 97.752 1140.4 97.752C1140.81 97.752 1141.13 97.5957 1141.36 97.2832C1141.59 96.9668 1141.7 96.4629 1141.7 95.7715C1141.7 95.1816 1141.59 94.7246 1141.36 94.4004C1141.13 94.0762 1140.8 93.9141 1140.39 93.9141C1139.97 93.9141 1139.65 94.0762 1139.43 94.4004C1139.2 94.7207 1139.09 95.2188 1139.09 95.8945ZM1150.05 96.6973L1150.89 92.6602H1152.52L1150.9 99H1149.49L1148.29 95.0098L1147.08 99H1145.67L1144.05 92.6602H1145.69L1146.52 96.6914L1147.68 92.6602H1148.9L1150.05 96.6973ZM1163.12 90.4688V96.0879C1163.12 97.0215 1162.83 97.7598 1162.24 98.3027C1161.66 98.8457 1160.86 99.1172 1159.85 99.1172C1158.86 99.1172 1158.07 98.8535 1157.48 98.3262C1156.89 97.7988 1156.59 97.0742 1156.58 96.1523V90.4688H1158.34V96.0996C1158.34 96.6582 1158.47 97.0664 1158.74 97.3242C1159.01 97.5781 1159.38 97.7051 1159.85 97.7051C1160.84 97.7051 1161.34 97.1855 1161.36 96.1465V90.4688H1163.12ZM1167.99 97.248C1167.99 97.041 1167.88 96.8789 1167.67 96.7617C1167.47 96.6406 1167.14 96.5332 1166.69 96.4395C1165.18 96.123 1164.43 95.4824 1164.43 94.5176C1164.43 93.9551 1164.66 93.4863 1165.13 93.1113C1165.59 92.7324 1166.21 92.543 1166.96 92.543C1167.76 92.543 1168.41 92.7324 1168.89 93.1113C1169.37 93.4902 1169.61 93.9824 1169.61 94.5879H1167.92C1167.92 94.3457 1167.84 94.1465 1167.69 93.9902C1167.53 93.8301 1167.29 93.75 1166.95 93.75C1166.67 93.75 1166.45 93.8145 1166.29 93.9434C1166.14 94.0723 1166.06 94.2363 1166.06 94.4355C1166.06 94.623 1166.15 94.7754 1166.32 94.8926C1166.5 95.0059 1166.8 95.1055 1167.22 95.1914C1167.65 95.2734 1168 95.3672 1168.29 95.4727C1169.18 95.8008 1169.63 96.3691 1169.63 97.1777C1169.63 97.7559 1169.38 98.2246 1168.89 98.584C1168.39 98.9395 1167.75 99.1172 1166.97 99.1172C1166.43 99.1172 1165.96 99.0234 1165.55 98.8359C1165.14 98.6445 1164.82 98.3848 1164.58 98.0566C1164.35 97.7246 1164.23 97.3672 1164.23 96.9844H1165.84C1165.85 97.2852 1165.96 97.5156 1166.17 97.6758C1166.38 97.8359 1166.65 97.916 1167 97.916C1167.33 97.916 1167.57 97.8555 1167.73 97.7344C1167.9 97.6094 1167.99 97.4473 1167.99 97.248Z" fill="#00CCCC"/>
<path d="M928.292 181.382V185H927.073V175.758H930.481C931.493 175.758 932.284 176.016 932.855 176.532C933.431 177.049 933.719 177.732 933.719 178.583C933.719 179.48 933.437 180.172 932.875 180.658C932.316 181.141 931.514 181.382 930.469 181.382H928.292ZM928.292 180.385H930.481C931.133 180.385 931.632 180.233 931.979 179.928C932.326 179.619 932.5 179.175 932.5 178.595C932.5 178.045 932.326 177.605 931.979 177.275C931.632 176.945 931.156 176.773 930.551 176.761H928.292V180.385ZM938.8 179.186C938.622 179.156 938.429 179.141 938.222 179.141C937.452 179.141 936.929 179.469 936.654 180.125V185H935.48V178.132H936.622L936.641 178.925C937.027 178.312 937.572 178.005 938.279 178.005C938.508 178.005 938.681 178.035 938.8 178.094V179.186ZM941.551 185H940.377V178.132H941.551V185ZM940.281 176.31C940.281 176.12 940.339 175.959 940.453 175.828C940.571 175.696 940.745 175.631 940.973 175.631C941.202 175.631 941.375 175.696 941.494 175.828C941.612 175.959 941.672 176.12 941.672 176.31C941.672 176.5 941.612 176.659 941.494 176.786C941.375 176.913 941.202 176.977 940.973 176.977C940.745 176.977 940.571 176.913 940.453 176.786C940.339 176.659 940.281 176.5 940.281 176.31ZM946.092 183.407L947.794 178.132H948.993L946.53 185H945.635L943.147 178.132H944.347L946.092 183.407ZM954.652 185C954.584 184.865 954.529 184.623 954.487 184.276C953.941 184.843 953.289 185.127 952.532 185.127C951.855 185.127 951.298 184.937 950.862 184.556C950.431 184.171 950.215 183.684 950.215 183.096C950.215 182.381 950.486 181.826 951.027 181.433C951.573 181.035 952.339 180.836 953.325 180.836H954.468V180.296C954.468 179.886 954.345 179.56 954.1 179.319C953.854 179.073 953.492 178.951 953.014 178.951C952.595 178.951 952.244 179.056 951.96 179.268C951.677 179.48 951.535 179.736 951.535 180.036H950.354C950.354 179.693 950.475 179.363 950.716 179.046C950.962 178.724 951.292 178.47 951.706 178.284C952.125 178.098 952.585 178.005 953.084 178.005C953.875 178.005 954.495 178.204 954.944 178.602C955.392 178.995 955.625 179.539 955.642 180.233V183.394C955.642 184.025 955.722 184.526 955.883 184.898V185H954.652ZM952.703 184.105C953.071 184.105 953.42 184.01 953.75 183.819C954.081 183.629 954.32 183.381 954.468 183.077V181.667H953.547C952.109 181.667 951.389 182.089 951.389 182.931C951.389 183.299 951.512 183.587 951.757 183.794C952.003 184.001 952.318 184.105 952.703 184.105ZM960.628 184.168C961.047 184.168 961.413 184.042 961.726 183.788C962.039 183.534 962.213 183.216 962.246 182.835H963.357C963.336 183.229 963.201 183.604 962.951 183.959C962.701 184.314 962.367 184.598 961.948 184.81C961.533 185.021 961.093 185.127 960.628 185.127C959.693 185.127 958.948 184.816 958.393 184.194C957.843 183.568 957.568 182.713 957.568 181.629V181.433C957.568 180.764 957.691 180.169 957.936 179.649C958.182 179.128 958.533 178.724 958.99 178.437C959.451 178.149 959.995 178.005 960.621 178.005C961.392 178.005 962.031 178.236 962.538 178.697C963.05 179.158 963.323 179.757 963.357 180.493H962.246C962.213 180.049 962.043 179.685 961.739 179.401C961.438 179.114 961.066 178.97 960.621 178.97C960.025 178.97 959.561 179.186 959.231 179.617C958.905 180.045 958.742 180.665 958.742 181.477V181.699C958.742 182.491 958.905 183.1 959.231 183.527C959.557 183.955 960.023 184.168 960.628 184.168ZM967.315 183.28L968.914 178.132H970.171L967.41 186.06C966.982 187.203 966.303 187.774 965.372 187.774L965.15 187.755L964.712 187.672V186.72L965.029 186.746C965.427 186.746 965.736 186.665 965.956 186.504C966.18 186.344 966.365 186.049 966.508 185.622L966.769 184.924L964.319 178.132H965.601L967.315 183.28ZM976.632 181.382V185H975.413V175.758H978.822C979.834 175.758 980.625 176.016 981.196 176.532C981.772 177.049 982.059 177.732 982.059 178.583C982.059 179.48 981.778 180.172 981.215 180.658C980.657 181.141 979.855 181.382 978.809 181.382H976.632ZM976.632 180.385H978.822C979.474 180.385 979.973 180.233 980.32 179.928C980.667 179.619 980.841 179.175 980.841 178.595C980.841 178.045 980.667 177.605 980.32 177.275C979.973 176.945 979.497 176.773 978.892 176.761H976.632V180.385ZM983.421 181.502C983.421 180.83 983.552 180.224 983.814 179.687C984.081 179.15 984.449 178.735 984.919 178.443C985.393 178.151 985.932 178.005 986.537 178.005C987.473 178.005 988.228 178.329 988.803 178.976C989.383 179.624 989.673 180.485 989.673 181.56V181.642C989.673 182.311 989.544 182.912 989.286 183.445C989.032 183.974 988.666 184.386 988.188 184.683C987.714 184.979 987.168 185.127 986.55 185.127C985.619 185.127 984.864 184.803 984.284 184.156C983.708 183.508 983.421 182.651 983.421 181.585V181.502ZM984.601 181.642C984.601 182.404 984.777 183.015 985.128 183.477C985.484 183.938 985.958 184.168 986.55 184.168C987.147 184.168 987.621 183.936 987.972 183.47C988.323 183 988.499 182.345 988.499 181.502C988.499 180.749 988.319 180.14 987.959 179.674C987.604 179.205 987.13 178.97 986.537 178.97C985.958 178.97 985.49 179.2 985.135 179.662C984.779 180.123 984.601 180.783 984.601 181.642ZM992.812 185H991.637V175.25H992.812V185ZM996.363 185H995.188V178.132H996.363V185ZM995.093 176.31C995.093 176.12 995.15 175.959 995.265 175.828C995.383 175.696 995.557 175.631 995.785 175.631C996.014 175.631 996.187 175.696 996.306 175.828C996.424 175.959 996.483 176.12 996.483 176.31C996.483 176.5 996.424 176.659 996.306 176.786C996.187 176.913 996.014 176.977 995.785 176.977C995.557 176.977 995.383 176.913 995.265 176.786C995.15 176.659 995.093 176.5 995.093 176.31ZM1001.39 184.168C1001.81 184.168 1002.18 184.042 1002.49 183.788C1002.8 183.534 1002.98 183.216 1003.01 182.835H1004.12C1004.1 183.229 1003.97 183.604 1003.72 183.959C1003.47 184.314 1003.13 184.598 1002.71 184.81C1002.3 185.021 1001.86 185.127 1001.39 185.127C1000.46 185.127 999.713 184.816 999.159 184.194C998.608 183.568 998.333 182.713 998.333 181.629V181.433C998.333 180.764 998.456 180.169 998.701 179.649C998.947 179.128 999.298 178.724 999.755 178.437C1000.22 178.149 1000.76 178.005 1001.39 178.005C1002.16 178.005 1002.8 178.236 1003.3 178.697C1003.82 179.158 1004.09 179.757 1004.12 180.493H1003.01C1002.98 180.049 1002.81 179.685 1002.5 179.401C1002.2 179.114 1001.83 178.97 1001.39 178.97C1000.79 178.97 1000.33 179.186 999.996 179.617C999.671 180.045 999.508 180.665 999.508 181.477V181.699C999.508 182.491 999.671 183.1 999.996 183.527C1000.32 183.955 1000.79 184.168 1001.39 184.168ZM1008.08 183.28L1009.68 178.132H1010.94L1008.17 186.06C1007.75 187.203 1007.07 187.774 1006.14 187.774L1005.92 187.755L1005.48 187.672V186.72L1005.79 186.746C1006.19 186.746 1006.5 186.665 1006.72 186.504C1006.95 186.344 1007.13 186.049 1007.27 185.622L1007.53 184.924L1005.08 178.132H1006.37L1008.08 183.28Z" fill="white" fill-opacity="0.7"/>
<path d="M934.032 151.127H930.833V160H929.527V151.127H926.335V150.047H934.032V151.127ZM938.086 160.137C937.084 160.137 936.268 159.809 935.639 159.152C935.01 158.492 934.696 157.61 934.696 156.507V156.274C934.696 155.541 934.835 154.887 935.113 154.312C935.395 153.734 935.787 153.283 936.288 152.959C936.794 152.631 937.341 152.467 937.929 152.467C938.891 152.467 939.638 152.784 940.171 153.417C940.704 154.05 940.971 154.957 940.971 156.138V156.664H935.96C935.979 157.393 936.19 157.983 936.596 158.435C937.006 158.881 937.526 159.104 938.155 159.104C938.601 159.104 938.98 159.013 939.289 158.831C939.599 158.649 939.87 158.407 940.103 158.106L940.875 158.708C940.256 159.66 939.326 160.137 938.086 160.137ZM937.929 153.506C937.419 153.506 936.99 153.693 936.644 154.066C936.298 154.436 936.083 154.955 936.001 155.625H939.706V155.529C939.67 154.887 939.497 154.39 939.187 154.039C938.877 153.684 938.458 153.506 937.929 153.506ZM946.406 153.738C946.215 153.706 946.007 153.69 945.784 153.69C944.954 153.69 944.392 154.044 944.095 154.75V160H942.831V152.604H944.061L944.082 153.458C944.496 152.797 945.084 152.467 945.845 152.467C946.092 152.467 946.278 152.499 946.406 152.562V153.738ZM949.154 152.604L949.189 153.424C949.731 152.786 950.462 152.467 951.383 152.467C952.417 152.467 953.121 152.863 953.495 153.656C953.741 153.301 954.06 153.014 954.452 152.795C954.849 152.576 955.316 152.467 955.854 152.467C957.476 152.467 958.301 153.326 958.328 155.044V160H957.064V155.119C957.064 154.59 956.943 154.196 956.701 153.937C956.46 153.672 956.054 153.54 955.484 153.54C955.015 153.54 954.625 153.681 954.316 153.964C954.006 154.242 953.826 154.618 953.775 155.092V160H952.504V155.153C952.504 154.078 951.978 153.54 950.925 153.54C950.095 153.54 949.528 153.893 949.223 154.6V160H947.958V152.604H949.154ZM964.939 158.038C964.939 157.696 964.809 157.432 964.549 157.245C964.294 157.054 963.845 156.89 963.203 156.753C962.565 156.616 962.056 156.452 961.678 156.261C961.304 156.069 961.026 155.841 960.844 155.577C960.666 155.313 960.578 154.998 960.578 154.634C960.578 154.028 960.833 153.515 961.343 153.096C961.858 152.676 962.514 152.467 963.312 152.467C964.15 152.467 964.83 152.683 965.349 153.116C965.873 153.549 966.135 154.103 966.135 154.777H964.864C964.864 154.431 964.716 154.132 964.419 153.882C964.128 153.631 963.759 153.506 963.312 153.506C962.852 153.506 962.492 153.606 962.232 153.807C961.972 154.007 961.842 154.269 961.842 154.593C961.842 154.898 961.963 155.128 962.205 155.283C962.446 155.438 962.881 155.586 963.51 155.728C964.144 155.869 964.656 156.037 965.048 156.233C965.44 156.429 965.73 156.666 965.916 156.944C966.108 157.218 966.204 157.553 966.204 157.949C966.204 158.61 965.939 159.141 965.411 159.542C964.882 159.938 964.196 160.137 963.353 160.137C962.761 160.137 962.236 160.032 961.781 159.822C961.325 159.613 960.967 159.321 960.707 158.947C960.452 158.569 960.325 158.161 960.325 157.724H961.589C961.612 158.147 961.781 158.485 962.095 158.735C962.414 158.981 962.833 159.104 963.353 159.104C963.831 159.104 964.214 159.009 964.501 158.817C964.793 158.621 964.939 158.362 964.939 158.038ZM971.769 156.233C971.769 155.509 971.91 154.857 972.193 154.278C972.48 153.7 972.876 153.253 973.382 152.938C973.892 152.624 974.473 152.467 975.125 152.467C976.132 152.467 976.946 152.815 977.566 153.513C978.19 154.21 978.502 155.137 978.502 156.295V156.384C978.502 157.104 978.363 157.751 978.085 158.325C977.812 158.895 977.417 159.339 976.903 159.658C976.392 159.977 975.804 160.137 975.139 160.137C974.136 160.137 973.323 159.788 972.698 159.091C972.079 158.394 971.769 157.471 971.769 156.322V156.233ZM973.04 156.384C973.04 157.204 973.229 157.863 973.608 158.359C973.99 158.856 974.501 159.104 975.139 159.104C975.781 159.104 976.292 158.854 976.67 158.353C977.048 157.847 977.237 157.14 977.237 156.233C977.237 155.422 977.044 154.766 976.656 154.265C976.274 153.759 975.763 153.506 975.125 153.506C974.501 153.506 973.997 153.754 973.614 154.251C973.232 154.748 973.04 155.459 973.04 156.384ZM981.1 160V153.581H979.931V152.604H981.1V151.845C981.1 151.052 981.312 150.439 981.736 150.006C982.16 149.573 982.759 149.356 983.534 149.356C983.825 149.356 984.115 149.395 984.402 149.473L984.334 150.498C984.119 150.457 983.891 150.437 983.65 150.437C983.24 150.437 982.923 150.557 982.7 150.799C982.476 151.036 982.365 151.378 982.365 151.824V152.604H983.944V153.581H982.365V160H981.1ZM992.729 155.563C991.603 155.24 990.783 154.843 990.268 154.374C989.757 153.9 989.502 153.317 989.502 152.624C989.502 151.84 989.814 151.193 990.439 150.683C991.068 150.168 991.883 149.91 992.886 149.91C993.57 149.91 994.178 150.042 994.711 150.307C995.249 150.571 995.664 150.936 995.955 151.4C996.252 151.865 996.4 152.373 996.4 152.925H995.08C995.08 152.323 994.889 151.852 994.506 151.51C994.123 151.163 993.583 150.99 992.886 150.99C992.239 150.99 991.733 151.134 991.368 151.421C991.008 151.703 990.828 152.098 990.828 152.604C990.828 153.009 990.999 153.353 991.341 153.636C991.687 153.914 992.273 154.169 993.098 154.401C993.927 154.634 994.574 154.891 995.039 155.174C995.509 155.452 995.855 155.778 996.078 156.151C996.306 156.525 996.42 156.965 996.42 157.471C996.42 158.277 996.106 158.924 995.477 159.412C994.848 159.895 994.007 160.137 992.954 160.137C992.271 160.137 991.633 160.007 991.04 159.747C990.448 159.483 989.99 159.123 989.666 158.667C989.347 158.211 989.188 157.694 989.188 157.115H990.507C990.507 157.717 990.728 158.193 991.17 158.544C991.617 158.89 992.211 159.063 992.954 159.063C993.647 159.063 994.178 158.922 994.547 158.64C994.916 158.357 995.101 157.972 995.101 157.484C995.101 156.997 994.93 156.621 994.588 156.356C994.246 156.088 993.627 155.823 992.729 155.563ZM1001.37 160.137C1000.37 160.137 999.551 159.809 998.922 159.152C998.294 158.492 997.979 157.61 997.979 156.507V156.274C997.979 155.541 998.118 154.887 998.396 154.312C998.679 153.734 999.071 153.283 999.572 152.959C1000.08 152.631 1000.62 152.467 1001.21 152.467C1002.17 152.467 1002.92 152.784 1003.45 153.417C1003.99 154.05 1004.25 154.957 1004.25 156.138V156.664H999.244C999.262 157.393 999.474 157.983 999.879 158.435C1000.29 158.881 1000.81 159.104 1001.44 159.104C1001.88 159.104 1002.26 159.013 1002.57 158.831C1002.88 158.649 1003.15 158.407 1003.39 158.106L1004.16 158.708C1003.54 159.66 1002.61 160.137 1001.37 160.137ZM1001.21 153.506C1000.7 153.506 1000.27 153.693 999.927 154.066C999.581 154.436 999.367 154.955 999.285 155.625H1002.99V155.529C1002.95 154.887 1002.78 154.39 1002.47 154.039C1002.16 153.684 1001.74 153.506 1001.21 153.506ZM1009.69 153.738C1009.5 153.706 1009.29 153.69 1009.07 153.69C1008.24 153.69 1007.68 154.044 1007.38 154.75V160H1006.11V152.604H1007.34L1007.37 153.458C1007.78 152.797 1008.37 152.467 1009.13 152.467C1009.37 152.467 1009.56 152.499 1009.69 152.562V153.738ZM1013.81 158.284L1015.64 152.604H1016.94L1014.28 160H1013.32L1010.64 152.604H1011.93L1013.81 158.284ZM1019.92 160H1018.65V152.604H1019.92V160ZM1018.55 150.642C1018.55 150.437 1018.61 150.263 1018.73 150.122C1018.86 149.981 1019.05 149.91 1019.29 149.91C1019.54 149.91 1019.73 149.981 1019.86 150.122C1019.98 150.263 1020.05 150.437 1020.05 150.642C1020.05 150.847 1019.98 151.018 1019.86 151.154C1019.73 151.291 1019.54 151.359 1019.29 151.359C1019.05 151.359 1018.86 151.291 1018.73 151.154C1018.61 151.018 1018.55 150.847 1018.55 150.642ZM1025.3 159.104C1025.75 159.104 1026.15 158.968 1026.49 158.694C1026.82 158.421 1027.01 158.079 1027.05 157.669H1028.24C1028.22 158.093 1028.07 158.496 1027.81 158.879C1027.54 159.262 1027.18 159.567 1026.73 159.795C1026.28 160.023 1025.81 160.137 1025.3 160.137C1024.3 160.137 1023.49 159.802 1022.9 159.132C1022.31 158.457 1022.01 157.537 1022.01 156.37V156.158C1022.01 155.438 1022.14 154.798 1022.41 154.237C1022.67 153.677 1023.05 153.242 1023.54 152.932C1024.04 152.622 1024.62 152.467 1025.3 152.467C1026.13 152.467 1026.81 152.715 1027.36 153.212C1027.91 153.709 1028.21 154.354 1028.24 155.146H1027.05C1027.01 154.668 1026.83 154.276 1026.5 153.971C1026.18 153.661 1025.78 153.506 1025.3 153.506C1024.65 153.506 1024.16 153.738 1023.8 154.203C1023.45 154.663 1023.27 155.331 1023.27 156.206V156.445C1023.27 157.298 1023.45 157.954 1023.8 158.414C1024.15 158.874 1024.65 159.104 1025.3 159.104ZM1033.12 160.137C1032.12 160.137 1031.31 159.809 1030.68 159.152C1030.05 158.492 1029.73 157.61 1029.73 156.507V156.274C1029.73 155.541 1029.87 154.887 1030.15 154.312C1030.43 153.734 1030.83 153.283 1031.33 152.959C1031.83 152.631 1032.38 152.467 1032.97 152.467C1033.93 152.467 1034.68 152.784 1035.21 153.417C1035.74 154.05 1036.01 154.957 1036.01 156.138V156.664H1031C1031.02 157.393 1031.23 157.983 1031.63 158.435C1032.04 158.881 1032.56 159.104 1033.19 159.104C1033.64 159.104 1034.02 159.013 1034.33 158.831C1034.64 158.649 1034.91 158.407 1035.14 158.106L1035.91 158.708C1035.29 159.66 1034.36 160.137 1033.12 160.137ZM1032.97 153.506C1032.46 153.506 1032.03 153.693 1031.68 154.066C1031.34 154.436 1031.12 154.955 1031.04 155.625H1034.74V155.529C1034.71 154.887 1034.53 154.39 1034.22 154.039C1033.92 153.684 1033.5 153.506 1032.97 153.506Z" fill="white" fill-opacity="0.7"/>
<path d="M932.645 129.604H928.468V134H927.155V124.047H933.321V125.127H928.468V128.531H932.645V129.604ZM939.618 131.402H935.448L934.511 134H933.158L936.958 124.047H938.107L941.914 134H940.568L939.618 131.402ZM935.844 130.322H939.228L937.533 125.667L935.844 130.322ZM951.164 129.345C951.164 130.306 951.011 131.136 950.706 131.833C950.4 132.526 949.972 133.068 949.421 133.46L951.198 134.854L950.302 135.682L948.204 134.014C947.876 134.096 947.529 134.137 947.165 134.137C946.381 134.137 945.686 133.945 945.08 133.562C944.474 133.175 944.002 132.626 943.665 131.915C943.332 131.2 943.161 130.372 943.152 129.434V128.716C943.152 127.759 943.318 126.913 943.651 126.18C943.984 125.446 944.453 124.885 945.059 124.498C945.67 124.106 946.367 123.91 947.151 123.91C947.953 123.91 948.657 124.104 949.263 124.491C949.874 124.879 950.343 125.437 950.672 126.166C951 126.891 951.164 127.738 951.164 128.709V129.345ZM949.851 128.702C949.851 127.531 949.617 126.629 949.147 125.995C948.682 125.357 948.017 125.038 947.151 125.038C946.326 125.038 945.675 125.355 945.196 125.988C944.722 126.617 944.478 127.492 944.465 128.613V129.345C944.465 130.484 944.702 131.382 945.176 132.038C945.654 132.694 946.317 133.022 947.165 133.022C948.012 133.022 948.669 132.715 949.134 132.1C949.598 131.48 949.838 130.593 949.851 129.44V128.702Z" fill="white" fill-opacity="0.7"/>
<path d="M931.186 96.7617C931.186 96.4297 931.068 96.1758 930.834 96C930.6 95.8203 930.178 95.6328 929.568 95.4375C928.959 95.2383 928.477 95.043 928.121 94.8516C927.152 94.3281 926.668 93.623 926.668 92.7363C926.668 92.2754 926.797 91.8652 927.055 91.5059C927.316 91.1426 927.689 90.8594 928.174 90.6562C928.662 90.4531 929.209 90.3516 929.814 90.3516C930.424 90.3516 930.967 90.4629 931.443 90.6855C931.92 90.9043 932.289 91.2148 932.551 91.6172C932.816 92.0195 932.949 92.4766 932.949 92.9883H931.191C931.191 92.5977 931.068 92.2949 930.822 92.0801C930.576 91.8613 930.23 91.752 929.785 91.752C929.355 91.752 929.021 91.8438 928.783 92.0273C928.545 92.207 928.426 92.4453 928.426 92.7422C928.426 93.0195 928.564 93.252 928.842 93.4395C929.123 93.627 929.535 93.8027 930.078 93.9668C931.078 94.2676 931.807 94.6406 932.264 95.0859C932.721 95.5312 932.949 96.0859 932.949 96.75C932.949 97.4883 932.67 98.0684 932.111 98.4902C931.553 98.9082 930.801 99.1172 929.855 99.1172C929.199 99.1172 928.602 98.998 928.062 98.7598C927.523 98.5176 927.111 98.1875 926.826 97.7695C926.545 97.3516 926.404 96.8672 926.404 96.3164H928.168C928.168 97.2578 928.73 97.7285 929.855 97.7285C930.273 97.7285 930.6 97.6445 930.834 97.4766C931.068 97.3047 931.186 97.0664 931.186 96.7617ZM937.93 98.3555C937.512 98.8633 936.934 99.1172 936.196 99.1172C935.516 99.1172 934.996 98.9219 934.637 98.5312C934.282 98.1406 934.1 97.5684 934.092 96.8145V92.6602H935.786V96.7559C935.786 97.416 936.086 97.7461 936.688 97.7461C937.262 97.7461 937.657 97.5469 937.871 97.1484V92.6602H939.571V99H937.977L937.93 98.3555ZM946.655 95.8887C946.655 96.8652 946.432 97.6484 945.987 98.2383C945.546 98.8242 944.948 99.1172 944.194 99.1172C943.554 99.1172 943.036 98.8945 942.641 98.4492V101.438H940.948V92.6602H942.518L942.577 93.2812C942.987 92.7891 943.522 92.543 944.182 92.543C944.964 92.543 945.571 92.832 946.005 93.4102C946.438 93.9883 946.655 94.7852 946.655 95.8008V95.8887ZM944.962 95.7656C944.962 95.1758 944.856 94.7207 944.645 94.4004C944.438 94.0801 944.136 93.9199 943.737 93.9199C943.206 93.9199 942.841 94.123 942.641 94.5293V97.125C942.848 97.543 943.218 97.752 943.749 97.752C944.557 97.752 944.962 97.0898 944.962 95.7656ZM953.517 95.8887C953.517 96.8652 953.294 97.6484 952.849 98.2383C952.407 98.8242 951.81 99.1172 951.056 99.1172C950.415 99.1172 949.898 98.8945 949.503 98.4492V101.438H947.81V92.6602H949.38L949.439 93.2812C949.849 92.7891 950.384 92.543 951.044 92.543C951.825 92.543 952.433 92.832 952.866 93.4102C953.3 93.9883 953.517 94.7852 953.517 95.8008V95.8887ZM951.823 95.7656C951.823 95.1758 951.718 94.7207 951.507 94.4004C951.3 94.0801 950.997 93.9199 950.599 93.9199C950.068 93.9199 949.702 94.123 949.503 94.5293V97.125C949.71 97.543 950.079 97.752 950.611 97.752C951.419 97.752 951.823 97.0898 951.823 95.7656ZM954.408 95.7715C954.408 95.1426 954.529 94.582 954.771 94.0898C955.013 93.5977 955.361 93.2168 955.814 92.9473C956.271 92.6777 956.8 92.543 957.402 92.543C958.257 92.543 958.955 92.8047 959.494 93.3281C960.037 93.8516 960.339 94.5625 960.402 95.4609L960.414 95.8945C960.414 96.8672 960.142 97.6484 959.599 98.2383C959.056 98.8242 958.328 99.1172 957.414 99.1172C956.5 99.1172 955.769 98.8242 955.222 98.2383C954.679 97.6523 954.408 96.8555 954.408 95.8477V95.7715ZM956.101 95.8945C956.101 96.4961 956.214 96.957 956.441 97.2773C956.668 97.5938 956.992 97.752 957.414 97.752C957.824 97.752 958.144 97.5957 958.375 97.2832C958.605 96.9668 958.72 96.4629 958.72 95.7715C958.72 95.1816 958.605 94.7246 958.375 94.4004C958.144 94.0762 957.82 93.9141 957.402 93.9141C956.988 93.9141 956.668 94.0762 956.441 94.4004C956.214 94.7207 956.101 95.2188 956.101 95.8945ZM965.119 94.248C964.889 94.2168 964.686 94.2012 964.51 94.2012C963.869 94.2012 963.449 94.418 963.25 94.8516V99H961.557V92.6602H963.156L963.203 93.416C963.543 92.834 964.014 92.543 964.615 92.543C964.803 92.543 964.979 92.5684 965.143 92.6191L965.119 94.248ZM968.36 91.1016V92.6602H969.444V93.9023H968.36V97.0664C968.36 97.3008 968.405 97.4688 968.495 97.5703C968.584 97.6719 968.756 97.7227 969.01 97.7227C969.198 97.7227 969.364 97.709 969.508 97.6816V98.9648C969.176 99.0664 968.834 99.1172 968.483 99.1172C967.295 99.1172 966.69 98.5176 966.666 97.3184V93.9023H965.741V92.6602H966.666V91.1016H968.36Z" fill="#00CCCC"/>
<path d="M738.851 124.047L742.104 132.168L745.358 124.047H747.061V134H745.748V130.124L745.871 125.94L742.604 134H741.599L738.338 125.961L738.468 130.124V134H737.155V124.047H738.851ZM752.639 134.137C751.636 134.137 750.821 133.809 750.192 133.152C749.563 132.492 749.248 131.61 749.248 130.507V130.274C749.248 129.541 749.387 128.887 749.665 128.312C749.948 127.734 750.34 127.283 750.841 126.959C751.347 126.631 751.894 126.467 752.482 126.467C753.443 126.467 754.191 126.784 754.724 127.417C755.257 128.05 755.524 128.957 755.524 130.138V130.664H750.513C750.531 131.393 750.743 131.983 751.149 132.435C751.559 132.881 752.078 133.104 752.707 133.104C753.154 133.104 753.532 133.013 753.842 132.831C754.152 132.649 754.423 132.407 754.656 132.106L755.428 132.708C754.808 133.66 753.879 134.137 752.639 134.137ZM752.482 127.506C751.971 127.506 751.543 127.693 751.197 128.066C750.85 128.436 750.636 128.955 750.554 129.625H754.259V129.529C754.223 128.887 754.05 128.39 753.74 128.039C753.43 127.684 753.01 127.506 752.482 127.506ZM760.959 127.738C760.767 127.706 760.56 127.69 760.337 127.69C759.507 127.69 758.944 128.044 758.648 128.75V134H757.384V126.604H758.614L758.634 127.458C759.049 126.797 759.637 126.467 760.398 126.467C760.644 126.467 760.831 126.499 760.959 126.562V127.738ZM765.348 133.104C765.799 133.104 766.193 132.968 766.53 132.694C766.868 132.421 767.054 132.079 767.091 131.669H768.287C768.264 132.093 768.119 132.496 767.85 132.879C767.581 133.262 767.221 133.567 766.77 133.795C766.323 134.023 765.849 134.137 765.348 134.137C764.341 134.137 763.538 133.802 762.941 133.132C762.349 132.457 762.053 131.537 762.053 130.37V130.158C762.053 129.438 762.185 128.798 762.449 128.237C762.714 127.677 763.092 127.242 763.584 126.932C764.081 126.622 764.666 126.467 765.341 126.467C766.17 126.467 766.858 126.715 767.405 127.212C767.957 127.709 768.251 128.354 768.287 129.146H767.091C767.054 128.668 766.872 128.276 766.544 127.971C766.22 127.661 765.819 127.506 765.341 127.506C764.698 127.506 764.199 127.738 763.844 128.203C763.493 128.663 763.317 129.331 763.317 130.206V130.445C763.317 131.298 763.493 131.954 763.844 132.414C764.195 132.874 764.696 133.104 765.348 133.104ZM771.364 127.499C771.924 126.811 772.653 126.467 773.551 126.467C775.114 126.467 775.903 127.349 775.916 129.112V134H774.652V129.105C774.647 128.572 774.524 128.178 774.283 127.923C774.046 127.668 773.674 127.54 773.168 127.54C772.758 127.54 772.398 127.649 772.088 127.868C771.778 128.087 771.537 128.374 771.364 128.729V134H770.099V123.5H771.364V127.499ZM782.766 134C782.693 133.854 782.634 133.594 782.589 133.221C782.001 133.831 781.299 134.137 780.483 134.137C779.754 134.137 779.155 133.932 778.685 133.521C778.221 133.107 777.988 132.583 777.988 131.949C777.988 131.179 778.28 130.582 778.863 130.158C779.451 129.73 780.276 129.516 781.338 129.516H782.568V128.935C782.568 128.493 782.436 128.142 782.172 127.882C781.907 127.618 781.518 127.485 781.003 127.485C780.552 127.485 780.173 127.599 779.868 127.827C779.563 128.055 779.41 128.331 779.41 128.654H778.138C778.138 128.285 778.268 127.93 778.528 127.588C778.792 127.242 779.148 126.968 779.595 126.768C780.046 126.567 780.54 126.467 781.078 126.467C781.93 126.467 782.598 126.681 783.081 127.109C783.564 127.533 783.815 128.119 783.833 128.866V132.271C783.833 132.95 783.919 133.49 784.093 133.891V134H782.766ZM780.668 133.036C781.064 133.036 781.44 132.934 781.796 132.729C782.151 132.523 782.409 132.257 782.568 131.929V130.411H781.577C780.027 130.411 779.253 130.865 779.253 131.771C779.253 132.168 779.385 132.478 779.649 132.701C779.914 132.924 780.253 133.036 780.668 133.036ZM787.402 126.604L787.443 127.533C788.008 126.822 788.746 126.467 789.657 126.467C791.221 126.467 792.009 127.349 792.023 129.112V134H790.758V129.105C790.753 128.572 790.63 128.178 790.389 127.923C790.152 127.668 789.78 127.54 789.275 127.54C788.864 127.54 788.504 127.649 788.194 127.868C787.885 128.087 787.643 128.374 787.47 128.729V134H786.205V126.604H787.402ZM796.036 124.812V126.604H797.417V127.581H796.036V132.168C796.036 132.464 796.097 132.688 796.22 132.838C796.343 132.984 796.553 133.057 796.849 133.057C796.995 133.057 797.195 133.029 797.451 132.975V134C797.118 134.091 796.794 134.137 796.48 134.137C795.915 134.137 795.489 133.966 795.202 133.624C794.915 133.282 794.771 132.797 794.771 132.168V127.581H793.424V126.604H794.771V124.812H796.036ZM804.663 130.104V134H803.351V124.047H807.022C808.111 124.047 808.963 124.325 809.578 124.881C810.198 125.437 810.508 126.173 810.508 127.089C810.508 128.055 810.205 128.8 809.599 129.324C808.997 129.844 808.134 130.104 807.008 130.104H804.663ZM804.663 129.03H807.022C807.724 129.03 808.261 128.866 808.635 128.538C809.009 128.205 809.196 127.727 809.196 127.103C809.196 126.51 809.009 126.036 808.635 125.681C808.261 125.325 807.749 125.141 807.097 125.127H804.663V129.03ZM811.944 130.233C811.944 129.509 812.085 128.857 812.368 128.278C812.655 127.7 813.051 127.253 813.557 126.938C814.068 126.624 814.649 126.467 815.3 126.467C816.308 126.467 817.121 126.815 817.741 127.513C818.365 128.21 818.677 129.137 818.677 130.295V130.384C818.677 131.104 818.538 131.751 818.26 132.325C817.987 132.895 817.593 133.339 817.078 133.658C816.567 133.977 815.979 134.137 815.314 134.137C814.311 134.137 813.498 133.788 812.874 133.091C812.254 132.394 811.944 131.471 811.944 130.322V130.233ZM813.215 130.384C813.215 131.204 813.405 131.863 813.783 132.359C814.166 132.856 814.676 133.104 815.314 133.104C815.957 133.104 816.467 132.854 816.845 132.353C817.224 131.847 817.413 131.14 817.413 130.233C817.413 129.422 817.219 128.766 816.832 128.265C816.449 127.759 815.938 127.506 815.3 127.506C814.676 127.506 814.172 127.754 813.79 128.251C813.407 128.748 813.215 129.459 813.215 130.384ZM824.228 127.738C824.037 127.706 823.83 127.69 823.606 127.69C822.777 127.69 822.214 128.044 821.918 128.75V134H820.653V126.604H821.884L821.904 127.458C822.319 126.797 822.907 126.467 823.668 126.467C823.914 126.467 824.101 126.499 824.228 126.562V127.738ZM827.845 124.812V126.604H829.226V127.581H827.845V132.168C827.845 132.464 827.907 132.688 828.03 132.838C828.153 132.984 828.362 133.057 828.659 133.057C828.804 133.057 829.005 133.029 829.26 132.975V134C828.927 134.091 828.604 134.137 828.289 134.137C827.724 134.137 827.298 133.966 827.011 133.624C826.724 133.282 826.58 132.797 826.58 132.168V127.581H825.234V126.604H826.58V124.812H827.845ZM835.666 134C835.593 133.854 835.534 133.594 835.488 133.221C834.9 133.831 834.198 134.137 833.382 134.137C832.653 134.137 832.054 133.932 831.585 133.521C831.12 133.107 830.887 132.583 830.887 131.949C830.887 131.179 831.179 130.582 831.762 130.158C832.35 129.73 833.175 129.516 834.237 129.516H835.467V128.935C835.467 128.493 835.335 128.142 835.071 127.882C834.807 127.618 834.417 127.485 833.902 127.485C833.451 127.485 833.073 127.599 832.767 127.827C832.462 128.055 832.309 128.331 832.309 128.654H831.038C831.038 128.285 831.168 127.93 831.427 127.588C831.692 127.242 832.047 126.968 832.494 126.768C832.945 126.567 833.439 126.467 833.977 126.467C834.829 126.467 835.497 126.681 835.98 127.109C836.463 127.533 836.714 128.119 836.732 128.866V132.271C836.732 132.95 836.819 133.49 836.992 133.891V134H835.666ZM833.567 133.036C833.964 133.036 834.34 132.934 834.695 132.729C835.05 132.523 835.308 132.257 835.467 131.929V130.411H834.476C832.927 130.411 832.152 130.865 832.152 131.771C832.152 132.168 832.284 132.478 832.549 132.701C832.813 132.924 833.152 133.036 833.567 133.036ZM840.479 134H839.214V123.5H840.479V134Z" fill="white" fill-opacity="0.7"/>
<path d="M743.459 96.1582C743.393 97.0762 743.053 97.7988 742.439 98.3262C741.83 98.8535 741.025 99.1172 740.025 99.1172C738.932 99.1172 738.07 98.75 737.441 98.0156C736.816 97.2773 736.504 96.2656 736.504 94.9805V94.459C736.504 93.6387 736.648 92.916 736.938 92.291C737.227 91.666 737.639 91.1875 738.174 90.8555C738.713 90.5195 739.338 90.3516 740.049 90.3516C741.033 90.3516 741.826 90.6152 742.428 91.1426C743.029 91.6699 743.377 92.4102 743.471 93.3633H741.713C741.67 92.8125 741.516 92.4141 741.25 92.168C740.988 91.918 740.588 91.793 740.049 91.793C739.463 91.793 739.023 92.0039 738.73 92.4258C738.441 92.8438 738.293 93.4941 738.285 94.377V95.0215C738.285 95.9434 738.424 96.6172 738.701 97.043C738.982 97.4688 739.424 97.6816 740.025 97.6816C740.568 97.6816 740.973 97.5586 741.238 97.3125C741.508 97.0625 741.662 96.6777 741.701 96.1582H743.459ZM744.338 95.7715C744.338 95.1426 744.459 94.582 744.702 94.0898C744.944 93.5977 745.291 93.2168 745.745 92.9473C746.202 92.6777 746.731 92.543 747.332 92.543C748.188 92.543 748.885 92.8047 749.424 93.3281C749.967 93.8516 750.27 94.5625 750.332 95.4609L750.344 95.8945C750.344 96.8672 750.073 97.6484 749.53 98.2383C748.987 98.8242 748.258 99.1172 747.344 99.1172C746.43 99.1172 745.7 98.8242 745.153 98.2383C744.61 97.6523 744.338 96.8555 744.338 95.8477V95.7715ZM746.032 95.8945C746.032 96.4961 746.145 96.957 746.371 97.2773C746.598 97.5938 746.922 97.752 747.344 97.752C747.754 97.752 748.075 97.5957 748.305 97.2832C748.536 96.9668 748.651 96.4629 748.651 95.7715C748.651 95.1816 748.536 94.7246 748.305 94.4004C748.075 94.0762 747.75 93.9141 747.332 93.9141C746.918 93.9141 746.598 94.0762 746.371 94.4004C746.145 94.7207 746.032 95.2188 746.032 95.8945ZM753.075 92.6602L753.128 93.3691C753.577 92.8184 754.184 92.543 754.95 92.543C755.766 92.543 756.327 92.8652 756.632 93.5098C757.077 92.8652 757.712 92.543 758.536 92.543C759.223 92.543 759.735 92.7441 760.071 93.1465C760.407 93.5449 760.575 94.1465 760.575 94.9512V99H758.876V94.957C758.876 94.5977 758.805 94.3359 758.665 94.1719C758.524 94.0039 758.276 93.9199 757.921 93.9199C757.413 93.9199 757.061 94.1621 756.866 94.6465L756.872 99H755.179V94.9629C755.179 94.5957 755.106 94.3301 754.962 94.166C754.817 94.002 754.571 93.9199 754.223 93.9199C753.743 93.9199 753.395 94.1191 753.18 94.5176V99H751.487V92.6602H753.075ZM767.689 95.8887C767.689 96.8652 767.466 97.6484 767.021 98.2383C766.579 98.8242 765.982 99.1172 765.228 99.1172C764.587 99.1172 764.07 98.8945 763.675 98.4492V101.438H761.982V92.6602H763.552L763.611 93.2812C764.021 92.7891 764.556 92.543 765.216 92.543C765.997 92.543 766.605 92.832 767.038 93.4102C767.472 93.9883 767.689 94.7852 767.689 95.8008V95.8887ZM765.995 95.7656C765.995 95.1758 765.89 94.7207 765.679 94.4004C765.472 94.0801 765.169 93.9199 764.771 93.9199C764.239 93.9199 763.874 94.123 763.675 94.5293V97.125C763.882 97.543 764.251 97.752 764.782 97.752C765.591 97.752 765.995 97.0898 765.995 95.7656ZM772.517 99C772.439 98.8477 772.382 98.6582 772.347 98.4316C771.937 98.8887 771.404 99.1172 770.748 99.1172C770.127 99.1172 769.611 98.9375 769.201 98.5781C768.795 98.2188 768.591 97.7656 768.591 97.2188C768.591 96.5469 768.839 96.0312 769.336 95.6719C769.836 95.3125 770.556 95.1309 771.498 95.127H772.277V94.7637C772.277 94.4707 772.201 94.2363 772.048 94.0605C771.9 93.8848 771.664 93.7969 771.339 93.7969C771.054 93.7969 770.83 93.8652 770.666 94.002C770.505 94.1387 770.425 94.3262 770.425 94.5645H768.732C768.732 94.1973 768.845 93.8574 769.072 93.5449C769.298 93.2324 769.619 92.9883 770.033 92.8125C770.447 92.6328 770.912 92.543 771.427 92.543C772.209 92.543 772.828 92.7402 773.285 93.1348C773.746 93.5254 773.976 94.0762 773.976 94.7871V97.5352C773.98 98.1367 774.064 98.5918 774.228 98.9004V99H772.517ZM771.117 97.8223C771.367 97.8223 771.597 97.7676 771.808 97.6582C772.019 97.5449 772.175 97.3945 772.277 97.207V96.1172H771.644C770.796 96.1172 770.345 96.4102 770.291 96.9961L770.285 97.0957C770.285 97.3066 770.359 97.4805 770.507 97.6172C770.656 97.7539 770.859 97.8223 771.117 97.8223ZM776.936 92.6602L776.988 93.3926C777.441 92.8262 778.049 92.543 778.811 92.543C779.482 92.543 779.982 92.7402 780.311 93.1348C780.639 93.5293 780.807 94.1191 780.814 94.9043V99H779.121V94.9453C779.121 94.5859 779.043 94.3262 778.887 94.166C778.73 94.002 778.471 93.9199 778.107 93.9199C777.631 93.9199 777.273 94.123 777.035 94.5293V99H775.342V92.6602H776.936ZM784.571 96.6035L785.743 92.6602H787.559L785.01 99.9844L784.87 100.318C784.491 101.146 783.866 101.561 782.995 101.561C782.748 101.561 782.498 101.523 782.245 101.449V100.166L782.502 100.172C782.823 100.172 783.061 100.123 783.217 100.025C783.377 99.9277 783.502 99.7656 783.592 99.5391L783.791 99.0176L781.571 92.6602H783.393L784.571 96.6035Z" fill="#00CCCC"/>
<g clip-path="url(#clip1_1_248)">
<path d="M297.683 76.0265V80.3069H303.981V97.3992H308.386V80.3069H314.683V76.0265H297.683ZM333.818 77.2678C332.537 76.3782 330.624 75.9067 328.263 75.9067C327.198 75.9067 321.954 76.0211 321.733 76.0265L320.901 76.0428V97.3992H325.334V89.6529H328.166C329.85 89.691 331.517 89.3175 333.025 88.5651C335.094 87.2693 336.33 84.975 336.281 82.5261C336.281 80.136 335.454 78.3665 333.818 77.2668V77.2678ZM325.324 80.3058C326.19 80.3058 327.498 80.2438 328.036 80.2438C331.116 80.2438 331.746 81.1944 331.746 82.6176C331.755 83.4495 331.377 84.24 330.726 84.7518C329.817 85.1928 328.811 85.3888 327.803 85.3213H325.334L325.324 80.3069V80.3058ZM345.692 80.7566C343.513 80.7392 341.424 81.6386 339.933 83.2382C338.386 84.8313 337.538 86.9818 337.578 89.2086C337.548 91.4463 338.396 93.6055 339.94 95.2193C341.432 96.8123 343.515 97.7096 345.692 97.6954C347.209 97.7139 348.695 97.2784 349.963 96.4432V97.1314H354.34V81.1203L350.03 82.0252C348.743 81.1759 347.232 80.7338 345.692 80.7566ZM348.649 86.0889C349.437 86.9317 349.866 88.0522 349.844 89.2086C349.869 90.3737 349.441 91.504 348.649 92.3555C347.934 93.1417 346.922 93.5892 345.862 93.5892C344.803 93.5892 343.792 93.1428 343.076 92.3566C342.285 91.5018 341.857 90.3704 341.888 89.2032C341.862 88.0468 342.289 86.9274 343.076 86.0835C343.782 85.2832 344.795 84.8258 345.86 84.8258C346.924 84.8258 347.937 85.2832 348.643 86.0835L348.649 86.0889ZM365.354 87.4958L363.655 86.8403C362.127 86.2719 362.127 86.0998 362.127 85.8679C362.127 85.5031 362.127 84.8313 364.074 84.8313C365.473 84.8345 366.851 85.1721 368.095 85.8167L369.307 86.3851V81.7922L368.74 81.582C367.221 81.0049 365.613 80.7055 363.989 80.7C360.07 80.7 357.726 82.5664 357.726 85.6915C357.726 88.8166 359.99 89.9371 361.734 90.5741L363.559 91.2296C365.325 91.8611 365.496 92.0375 365.496 92.3675C365.496 92.8346 365.496 93.6142 363.281 93.6142C361.622 93.6099 359.997 93.1351 358.593 92.2477L357.312 91.5072V96.2265L357.772 96.466C359.476 97.3099 361.353 97.739 363.253 97.7183C367.415 97.7183 369.901 95.7594 369.901 92.4872C369.93 89.4874 367.856 88.429 365.354 87.4958ZM380.094 87.4958L378.395 86.8403C376.866 86.2719 376.866 86.0998 376.866 85.8679C376.866 85.5031 376.866 84.8313 378.814 84.8313C380.213 84.8345 381.591 85.1721 382.834 85.8167L384.047 86.3851V81.7922L383.48 81.582C381.962 81.0049 380.353 80.7055 378.73 80.7C374.81 80.7 372.466 82.5664 372.466 85.6915C372.466 88.8166 374.731 89.9371 376.475 90.5741L378.299 91.2296C380.065 91.8611 380.236 92.0375 380.236 92.3675C380.236 92.8346 380.236 93.6142 378.021 93.6142C376.363 93.6099 374.738 93.1351 373.333 92.2477L372.053 91.5072V96.2265L372.511 96.466C374.215 97.3099 376.094 97.739 377.993 97.7183C382.155 97.7183 384.641 95.7594 384.641 92.4872C384.67 89.4874 382.625 88.429 380.094 87.4958Z" fill="white"/>
<path d="M314.394 97.4439C315.666 97.4439 316.698 96.407 316.698 95.1278C316.698 93.8487 315.666 92.8118 314.394 92.8118C313.121 92.8118 312.09 93.8487 312.09 95.1278C312.09 96.407 313.121 97.4439 314.394 97.4439Z" fill="url(#paint0_linear_1_248)"/>
<path d="M270.261 102.631C274.77 102.631 278.909 99.8916 279.491 96.5248L280.427 88.1686C278.668 89.0594 278.1 91.0292 274.389 89.4982C274.389 89.4982 270.721 87.487 269.699 87.1745C264.623 85.6217 259.819 89.7856 259.773 89.8488L261.107 96.4279C261.693 99.8296 265.803 102.631 270.261 102.631Z" fill="url(#paint1_linear_1_248)"/>
<path d="M282.649 74.2668C282.253 68.8202 278.46 64.2273 273.205 62.8357L273.494 60.1537L275.783 58.9799L275.875 58.9331L277.5 58.111C277.839 57.94 278.096 57.6417 278.215 57.2802C278.333 56.9197 278.304 56.5267 278.133 56.1869L277.934 55.7895C277.912 55.7459 277.888 55.7024 277.862 55.661C277.468 55.0425 276.672 54.8225 276.02 55.1536L275.528 55.404L275.493 55.4203L270.857 57.7342C270.586 57.8584 270.402 58.1153 270.369 58.4126L269.94 62.4067C263.242 62.4284 257.785 67.6551 257.309 74.2668C255.97 74.5282 255.002 75.7042 255.001 77.0762V78.4209C255.003 79.9497 256.201 81.2063 257.72 81.2727L259.6 95.8856C259.977 100.459 263.568 103.91 267.95 103.91H272.253C276.635 103.91 280.225 100.461 280.598 95.9368L282.484 81.2521C283.897 81.0659 284.954 79.8583 284.956 78.4264V77.0805C284.957 75.7085 283.99 74.5271 282.649 74.2668ZM269.977 64.5539C275.48 64.5539 280.001 68.8061 280.502 74.2124H278.414C277.925 69.957 274.342 66.649 269.98 66.649C265.62 66.649 262.029 69.957 261.541 74.2124H259.455C259.953 68.8061 264.472 64.5539 269.977 64.5539ZM276.378 74.2124H274.069C273.625 72.3014 271.929 70.9501 269.978 70.9501C268.026 70.9501 266.332 72.3014 265.887 74.2124H263.578C264.058 71.0317 266.778 68.6808 269.978 68.6808C273.178 68.6808 275.899 71.0317 276.378 74.2124ZM260.931 89.0866L259.929 81.2858H267.87L267.358 86.1967C264.338 86.0987 262.198 87.7103 260.933 89.0855L260.931 89.0866ZM278.419 95.7016C278.138 99.124 275.486 101.705 272.252 101.705H267.949C264.714 101.705 262.062 99.124 261.774 95.6504L261.252 91.5726C261.73 90.7755 263.672 87.9651 267.167 87.9988L266.521 94.1772C266.437 94.9851 267.002 95.7136 267.785 95.8007L268.225 95.8497C268.274 95.8551 268.323 95.8584 268.372 95.8584C269.113 95.8519 269.728 95.2835 269.796 94.5419L270.398 88.773C270.512 88.8242 270.624 88.871 270.739 88.9287C274.769 90.9105 277.566 90.3138 279.222 89.4449L278.421 95.7016H278.419ZM279.533 87.0308C278.991 87.597 276.479 89.7585 271.523 87.3204C271.207 87.1647 270.899 87.033 270.593 86.9121L271.183 81.2847H280.272L279.533 87.0308ZM282.791 78.4188C282.791 78.6017 282.719 78.7781 282.591 78.9066C282.464 79.0373 282.289 79.1102 282.107 79.1102H257.85C257.471 79.1102 257.166 78.8021 257.166 78.4231V77.0773C257.166 76.6972 257.472 76.3902 257.85 76.3891H282.107C282.486 76.3891 282.792 76.6972 282.793 77.0773L282.791 78.4188Z" fill="white"/>
<path d="M272.484 98.0167C271.825 98.1604 271.406 98.8127 271.549 99.4758C271.691 100.138 272.34 100.558 273 100.416C273.658 100.274 274.078 99.6206 273.936 98.9586C273.867 98.6406 273.676 98.3619 273.405 98.1855C273.132 98.008 272.8 97.9481 272.484 98.0167ZM273.363 95.2825C273.135 95.3326 272.962 95.5133 272.919 95.7431C272.878 95.9718 272.979 96.2037 273.174 96.33C273.369 96.4563 273.62 96.452 273.81 96.3191C274.001 96.1863 274.093 95.9511 274.044 95.7235C273.977 95.4121 273.671 95.215 273.361 95.2825H273.363ZM265.441 98.7963C265.212 98.8464 265.065 99.0751 265.115 99.3081C265.165 99.539 265.392 99.686 265.623 99.6348C265.853 99.5847 265.999 99.356 265.949 99.1252C265.925 99.0141 265.858 98.9161 265.763 98.8551C265.668 98.7931 265.552 98.7724 265.441 98.7963ZM270.176 96.0513C269.856 96.1199 269.61 96.3779 269.551 96.7013C269.493 97.0247 269.635 97.3525 269.91 97.5311C270.186 97.7085 270.54 97.702 270.809 97.5147C271.08 97.3263 271.21 96.9942 271.14 96.673C271.044 96.2331 270.613 95.9544 270.175 96.0502L270.176 96.0513ZM265.362 96.0513C264.924 96.146 264.647 96.5794 264.742 97.0193C264.838 97.4581 265.27 97.7369 265.707 97.641C266.143 97.5452 266.422 97.1118 266.325 96.6719C266.28 96.4618 266.153 96.2777 265.972 96.1601C265.791 96.0436 265.571 96.0044 265.362 96.0513ZM272.918 93.9116C273.384 93.8103 273.742 93.4368 273.827 92.9654C273.912 92.495 273.706 92.018 273.305 91.76C272.904 91.5008 272.389 91.5095 271.998 91.7828C271.606 92.0561 271.417 92.5396 271.519 93.0067C271.656 93.6448 272.284 94.0499 272.918 93.9116ZM267.583 98.6025C267.204 98.8421 267.09 99.343 267.326 99.7241C267.563 100.105 268.062 100.221 268.442 99.9843C268.821 99.7469 268.937 99.2461 268.702 98.8639C268.588 98.6798 268.406 98.5481 268.196 98.5002C267.987 98.4512 267.766 98.4882 267.583 98.6025ZM275.727 94.4462C275.965 94.8274 276.464 94.9428 276.843 94.7043C277.222 94.4648 277.337 93.9639 277.1 93.5827C276.863 93.2016 276.363 93.0851 275.984 93.3236C275.801 93.4379 275.672 93.6209 275.623 93.831C275.576 94.0412 275.613 94.2633 275.727 94.4462ZM275.62 96.7656C275.241 97.004 275.125 97.506 275.362 97.8871C275.601 98.2682 276.099 98.3847 276.478 98.1463C276.857 97.9078 276.973 97.4058 276.736 97.0247C276.622 96.8418 276.441 96.7111 276.231 96.6621C276.022 96.6142 275.802 96.6512 275.62 96.7656ZM264.906 93.3976C264.567 92.8532 263.854 92.6899 263.314 93.0296C262.772 93.3704 262.608 94.0858 262.946 94.6303C263.285 95.1747 263.997 95.3391 264.539 95.0005C264.799 94.8361 264.984 94.5758 265.053 94.2753C265.122 93.9748 265.069 93.659 264.906 93.3976Z" fill="white"/>
</g>
<defs>
<linearGradient id="paint0_linear_1_248" x1="312.095" y1="95.1278" x2="316.698" y2="95.1278" gradientUnits="userSpaceOnUse">
<stop stop-color="#59C4C9"/>
<stop offset="0.37" stop-color="#41B1BE"/>
<stop offset="1" stop-color="#0F8BA8"/>
</linearGradient>
<linearGradient id="paint1_linear_1_248" x1="259.773" y1="94.7304" x2="280.426" y2="94.7304" gradientUnits="userSpaceOnUse">
<stop stop-color="#59C4C9"/>
<stop offset="0.37" stop-color="#41B1BE"/>
<stop offset="1" stop-color="#0F8BA8"/>
</linearGradient>
<clipPath id="clip0_1_248">
<rect width="1440" height="297" fill="white"/>
</clipPath>
<clipPath id="clip1_1_248">
<rect width="130" height="49" fill="white" transform="translate(255 55)"/>
</clipPath>
</defs>
</svg>
